whois-mono.ufo
<glyph name="uni0000" format="1">
  <advance width="996"/>
  <unicode hex="0000"/>
  <outline>
    <contour>
      <point x="499" y="809" type="curve" smooth="yes"/>
      <point x="576" y="809"/>
      <point x="637" y="745"/>
      <point x="637" y="668" type="curve" smooth="yes"/>
      <point x="637" y="591"/>
      <point x="576" y="530"/>
      <point x="499" y="530" type="curve" smooth="yes"/>
      <point x="422" y="530"/>
      <point x="361" y="591"/>
      <point x="361" y="668" type="curve" smooth="yes"/>
      <point x="361" y="745"/>
      <point x="422" y="809"/>
    </contour>
  </outline>
</glyph>
<glyph name="exclam" format="1">
  <advance width="996"/>
  <unicode hex="0021"/>
  <outline>
    <contour>
      <point x="422" y="1331" type="line"/>
      <point x="571" y="1331" type="line"/>
      <point x="571" y="745" type="line"/>
      <point x="548" y="448" type="line"/>
      <point x="445" y="448" type="line"/>
      <point x="422" y="745" type="line"/>
    </contour>
    <contour>
      <point x="622" y="125" type="curve" smooth="yes"/>
      <point x="622" y="56"/>
      <point x="568" y="0"/>
      <point x="499" y="0" type="curve" smooth="yes"/>
      <point x="430" y="0"/>
      <point x="376" y="56"/>
      <point x="376" y="125" type="curve" smooth="yes"/>
      <point x="376" y="194"/>
      <point x="430" y="251"/>
      <point x="499" y="251" type="curve" smooth="yes"/>
      <point x="568" y="251"/>
      <point x="622" y="194"/>
    </contour>
  </outline>
</glyph>
<glyph name="quotedbl" format="1">
  <advance width="998"/>
  <unicode hex="0022"/>
  <outline>
    <contour>
      <point x="563" y="1331" type="line" smooth="no"/>
      <point x="684" y="1331" type="line" smooth="no"/>
      <point x="684" y="999" type="line" smooth="no"/>
      <point x="563" y="999" type="line" smooth="no"/>
    </contour>
    <contour>
      <point x="315" y="1331" type="line" smooth="no"/>
      <point x="435" y="1331" type="line" smooth="no"/>
      <point x="435" y="999" type="line" smooth="no"/>
      <point x="315" y="999" type="line" smooth="no"/>
    </contour>
  </outline>
</glyph>
<glyph name="numbersign" format="1">
  <advance width="998"/>
  <unicode hex="0023"/>
  <outline>
    <contour>
      <point x="566" y="0" type="line" smooth="no"/>
      <point x="663" y="1162" type="line" smooth="no"/>
      <point x="776" y="1162" type="line" smooth="no"/>
      <point x="678" y="0" type="line" smooth="no"/>
    </contour>
    <contour>
      <point x="220" y="0" type="line" smooth="no"/>
      <point x="317" y="1162" type="line" smooth="no"/>
      <point x="430" y="1162" type="line" smooth="no"/>
      <point x="333" y="0" type="line" smooth="no"/>
    </contour>
    <contour>
      <point x="136" y="893" type="line" smooth="no"/>
      <point x="911" y="893" type="line" smooth="no"/>
      <point x="911" y="781" type="line" smooth="no"/>
      <point x="136" y="781" type="line" smooth="no"/>
    </contour>
    <contour>
      <point x="84" y="379" type="line" smooth="no"/>
      <point x="873" y="379" type="line" smooth="no"/>
      <point x="873" y="266" type="line" smooth="no"/>
      <point x="84" y="266" type="line" smooth="no"/>
    </contour>
  </outline>
</glyph>
<glyph name="dollar" format="1">
  <advance width="998"/>
  <unicode hex="0024"/>
  <outline>
    <contour>
      <point x="451" y="1454" type="line" smooth="no"/>
      <point x="573" y="1454" type="line" smooth="no"/>
      <point x="573" y="1324" type="line" smooth="no"/>
      <point x="777" y="1295"/>
      <point x="847" y="1132"/>
      <point x="847" y="1132" type="curve" smooth="no"/>
      <point x="735" y="1068" type="line" smooth="no"/>
      <point x="735" y="1068"/>
      <point x="705" y="1169"/>
      <point x="573" y="1195" type="curve" smooth="no"/>
      <point x="573" y="720" type="line" smooth="no"/>
      <point x="749" y="642"/>
      <point x="854" y="560"/>
      <point x="873" y="430" type="curve" smooth="yes"/>
      <point x="898" y="241"/>
      <point x="787" y="40"/>
      <point x="573" y="5" type="curve" smooth="no"/>
      <point x="573" y="-141" type="line" smooth="no"/>
      <point x="451" y="-141" type="line" smooth="no"/>
      <point x="451" y="2" type="line" smooth="no"/>
      <point x="226" y="20"/>
      <point x="161" y="144"/>
      <point x="128" y="210" type="curve" smooth="no"/>
      <point x="243" y="269" type="line" smooth="no"/>
      <point x="290" y="192"/>
      <point x="323" y="141"/>
      <point x="451" y="132" type="curve" smooth="no"/>
      <point x="451" y="631" type="line" smooth="no"/>
      <point x="337" y="681"/>
      <point x="154" y="784"/>
      <point x="151" y="960" type="curve" smooth="yes"/>
      <point x="149" y="1105"/>
      <point x="248" y="1293"/>
      <point x="451" y="1324" type="curve" smooth="no"/>
    </contour>
    <contour>
      <point x="451" y="774" type="curve" smooth="no"/>
      <point x="451" y="1194" type="line" smooth="no"/>
      <point x="350" y="1171"/>
      <point x="280" y="1088"/>
      <point x="282" y="963" type="curve" smooth="yes"/>
      <point x="282" y="944"/>
      <point x="278" y="861"/>
    </contour>
    <contour>
      <point x="573" y="586" type="curve" smooth="no"/>
      <point x="573" y="139" type="line" smooth="no"/>
      <point x="712" y="174"/>
      <point x="760" y="312"/>
      <point x="745" y="412" type="curve" smooth="yes"/>
      <point x="739" y="453"/>
      <point x="723" y="510"/>
    </contour>
  </outline>
</glyph>
<glyph name="ampersand" format="1">
  <advance width="996"/>
  <unicode hex="0026"/>
  <outline>
    <contour>
      <point x="591" y="1037" type="line"/>
      <point x="584" y="1075"/>
      <point x="566" y="1215"/>
      <point x="453" y="1215" type="curve" smooth="yes"/>
      <point x="286" y="1215"/>
      <point x="272" y="1073"/>
      <point x="358" y="942" type="curve"/>
      <point x="652" y="477" type="line"/>
      <point x="678" y="562"/>
      <point x="713" y="698"/>
      <point x="713" y="698" type="curve"/>
      <point x="832" y="664" type="line"/>
      <point x="736" y="344" type="line"/>
      <point x="736" y="344"/>
      <point x="812" y="211"/>
      <point x="843" y="122" type="curve" smooth="yes"/>
      <point x="866" y="56"/>
      <point x="868" y="0"/>
      <point x="868" y="0" type="curve"/>
      <point x="752" y="0" type="line"/>
      <point x="752" y="0"/>
      <point x="743" y="58"/>
      <point x="734" y="91" type="curve" smooth="yes"/>
      <point x="720" y="145"/>
      <point x="683" y="202"/>
      <point x="683" y="202" type="curve"/>
      <point x="642" y="128"/>
      <point x="579" y="12"/>
      <point x="413" y="0" type="curve" smooth="yes"/>
      <point x="223" y="-14"/>
      <point x="150,59" y="45,4053"/>
      <point x="79" y="149" type="curve" smooth="yes"/>
      <point x="-6" y="272"/>
      <point x="-2" y="465"/>
      <point x="125" y="620" type="curve" smooth="yes"/>
      <point x="195" y="700"/>
      <point x="320" y="783"/>
      <point x="320" y="783" type="curve"/>
      <point x="252" y="882" type="line"/>
      <point x="122" y="1072"/>
      <point x="156" y="1336"/>
      <point x="449" y="1332" type="curve" smooth="yes"/>
      <point x="684" y="1329"/>
      <point x="702" y="1114"/>
      <point x="703" y="1057" type="curve"/>
    </contour>
    <contour>
      <point x="412" y="121" type="curve" smooth="yes"/>
      <point x="536" y="141"/>
      <point x="605" y="327"/>
      <point x="605" y="327" type="curve"/>
      <point x="376" y="677" type="line"/>
      <point x="351" y="662"/>
      <point x="263" y="596"/>
      <point x="220" y="545" type="curve" smooth="yes"/>
      <point x="154" y="467"/>
      <point x="115" y="331"/>
      <point x="182" y="221" type="curve" smooth="yes"/>
      <point x="220" y="159"/>
      <point x="289" y="101"/>
    </contour>
  </outline>
</glyph>
<glyph name="quotesingle" format="1">
  <advance width="996"/>
  <unicode hex="0027"/>
  <outline>
    <contour>
      <point x="439" y="1331" type="line"/>
      <point x="559" y="1331" type="line"/>
      <point x="559" y="999" type="line"/>
      <point x="439" y="999" type="line"/>
    </contour>
  </outline>
</glyph>
<glyph name="parenleft" format="1">
  <advance width="996"/>
  <unicode hex="0028"/>
  <outline>
    <contour>
      <point x="195" y="660" type="curve" smooth="yes"/>
      <point x="194" y="1037"/>
      <point x="353" y="1459"/>
      <point x="708" y="1478" type="curve"/>
      <point x="708" y="1365" type="line"/>
      <point x="495" y="1347"/>
      <point x="327" y="974"/>
      <point x="327" y="663" type="curve" smooth="yes"/>
      <point x="327" y="348"/>
      <point x="498" y="-30"/>
      <point x="711" y="-48" type="curve"/>
      <point x="711" y="-160" type="line"/>
      <point x="356" y="-141"/>
      <point x="196" y="282"/>
    </contour>
  </outline>
</glyph>
<glyph name="parenright" format="1">
  <advance width="996"/>
  <unicode hex="0029"/>
  <outline>
    <contour>
      <point x="803" y="660" type="curve" smooth="yes"/>
      <point x="802" y="282"/>
      <point x="642" y="-141"/>
      <point x="287" y="-160" type="curve"/>
      <point x="287" y="-48" type="line"/>
      <point x="500" y="-30"/>
      <point x="671" y="348"/>
      <point x="671" y="663" type="curve" smooth="yes"/>
      <point x="671" y="974"/>
      <point x="503" y="1347"/>
      <point x="290" y="1365" type="curve"/>
      <point x="290" y="1478" type="line"/>
      <point x="645" y="1459"/>
      <point x="804" y="1037"/>
    </contour>
  </outline>
</glyph>
<glyph name="asterisk" format="1">
  <advance width="998"/>
  <unicode hex="002a"/>
  <outline>
    <contour>
      <point x="547" y="1353" type="line" smooth="no"/>
      <point x="541" y="1198" type="line" smooth="no"/>
      <point x="694" y="1252" type="line" smooth="no"/>
      <point x="721" y="1168" type="line" smooth="no"/>
      <point x="562" y="1129.42" type="line" smooth="no"/>
      <point x="655" y="995" type="line" smooth="no"/>
      <point x="579" y="940" type="line" smooth="no"/>
      <point x="499" y="1096" type="line" smooth="no"/>
      <point x="419" y="939.576" type="line" smooth="no"/>
      <point x="343" y="994.576" type="line" smooth="no"/>
      <point x="436" y="1129" type="line" smooth="no"/>
      <point x="277" y="1167.58" type="line" smooth="no"/>
      <point x="304" y="1251.58" type="line" smooth="no"/>
      <point x="457" y="1197.58" type="line" smooth="no"/>
      <point x="451" y="1352.58" type="line" smooth="no"/>
    </contour>
  </outline>
</glyph>
<glyph name="plus" format="1">
  <advance width="996"/>
  <unicode hex="002B"/>
  <outline>
    <contour>
      <point x="138" y="402" type="line"/>
      <point x="138" y="538" type="line"/>
      <point x="431" y="538" type="line"/>
      <point x="431" y="831" type="line"/>
      <point x="567" y="831" type="line"/>
      <point x="567" y="538" type="line"/>
      <point x="860" y="538" type="line"/>
      <point x="860" y="402" type="line"/>
      <point x="567" y="402" type="line"/>
      <point x="567" y="109" type="line"/>
      <point x="431" y="109" type="line"/>
      <point x="431" y="402" type="line"/>
    </contour>
  </outline>
</glyph>
<glyph name="comma" format="1">
  <advance width="996"/>
  <unicode hex="002C"/>
  <outline>
    <contour>
      <point x="440" y="229" type="line"/>
      <point x="640" y="198" type="line"/>
      <point x="484" y="-162" type="line"/>
      <point x="361" y="-162" type="line"/>
    </contour>
  </outline>
</glyph>
<glyph name="hyphen" format="1">
  <advance width="998"/>
  <unicode hex="002d"/>
  <outline>
    <contour>
      <point x="138" y="538" type="line" smooth="no"/>
      <point x="860" y="538" type="line" smooth="no"/>
      <point x="860" y="402" type="line" smooth="no"/>
      <point x="138" y="402" type="line" smooth="no"/>
    </contour>
  </outline>
</glyph>
<glyph name="period" format="1">
  <advance width="996"/>
  <unicode hex="002E"/>
  <outline>
    <contour>
      <point x="622" y="125" type="curve" smooth="yes"/>
      <point x="622" y="56"/>
      <point x="568" y="0"/>
      <point x="499" y="0" type="curve" smooth="yes"/>
      <point x="430" y="0"/>
      <point x="376" y="56"/>
      <point x="376" y="125" type="curve" smooth="yes"/>
      <point x="376" y="194"/>
      <point x="430" y="251"/>
      <point x="499" y="251" type="curve" smooth="yes"/>
      <point x="568" y="251"/>
      <point x="622" y="194"/>
    </contour>
  </outline>
</glyph>
<glyph name="slash" format="1">
  <advance width="996"/>
  <unicode hex="002F"/>
  <outline>
    <contour>
      <point x="27" y="-128" type="line"/>
      <point x="820" y="1332" type="line"/>
      <point x="970" y="1331" type="line"/>
      <point x="177" y="-129" type="line"/>
    </contour>
  </outline>
</glyph>
<glyph name="zero" format="1">
  <advance width="998"/>
  <unicode hex="0030"/>
  <outline>
    <contour>
      <point x="499" y="1331" type="curve" smooth="yes"/>
      <point x="647" y="1331"/>
      <point x="763" y="1244"/>
      <point x="827" y="1121" type="curve" smooth="yes"/>
      <point x="891" y="998"/>
      <point x="916" y="840"/>
      <point x="916" y="668" type="curve" smooth="yes"/>
      <point x="916" y="496"/>
      <point x="889" y="333"/>
      <point x="822" y="210" type="curve" smooth="yes"/>
      <point x="755" y="87"/>
      <point x="642" y="0"/>
      <point x="499" y="0" type="curve" smooth="yes"/>
      <point x="356" y="0"/>
      <point x="241" y="87"/>
      <point x="174" y="210" type="curve" smooth="yes"/>
      <point x="107" y="333"/>
      <point x="82" y="496"/>
      <point x="82" y="668" type="curve" smooth="yes"/>
      <point x="82" y="840"/>
      <point x="108" y="998"/>
      <point x="172" y="1121" type="curve" smooth="yes"/>
      <point x="236" y="1244"/>
      <point x="351" y="1331"/>
    </contour>
    <contour>
      <point x="499" y="1201" type="curve" smooth="yes"/>
      <point x="397" y="1201"/>
      <point x="336" y="1155"/>
      <point x="287" y="1060" type="curve" smooth="yes"/>
      <point x="238" y="965"/>
      <point x="212" y="827"/>
      <point x="212" y="668" type="curve" smooth="yes"/>
      <point x="212" y="509"/>
      <point x="238" y="366"/>
      <point x="289" y="271" type="curve" smooth="yes"/>
      <point x="340" y="176"/>
      <point x="402" y="131"/>
      <point x="499" y="131" type="curve" smooth="yes"/>
      <point x="596" y="131"/>
      <point x="656" y="176"/>
      <point x="707" y="271" type="curve" smooth="yes"/>
      <point x="758" y="366"/>
      <point x="786" y="509"/>
      <point x="786" y="668" type="curve" smooth="yes"/>
      <point x="786" y="827"/>
      <point x="761" y="965"/>
      <point x="712" y="1060" type="curve" smooth="yes"/>
      <point x="663" y="1155"/>
      <point x="601" y="1201"/>
    </contour>
    <contour>
      <point x="499" y="809" type="curve" smooth="yes"/>
      <point x="576" y="809"/>
      <point x="637" y="745"/>
      <point x="637" y="668" type="curve" smooth="yes"/>
      <point x="637" y="591"/>
      <point x="576" y="530"/>
      <point x="499" y="530" type="curve" smooth="yes"/>
      <point x="422" y="530"/>
      <point x="361" y="591"/>
      <point x="361" y="668" type="curve" smooth="yes"/>
      <point x="361" y="745"/>
      <point x="422" y="809"/>
    </contour>
  </outline>
</glyph>
<glyph name="one" format="1">
  <advance width="998"/>
  <unicode hex="0031"/>
  <outline>
    <contour>
      <point x="428" y="1331" type="curve" smooth="no"/>
      <point x="570" y="1331" type="line" smooth="no"/>
      <point x="571" y="131" type="line" smooth="no"/>
      <point x="922" y="131" type="line" smooth="no"/>
      <point x="922" y="0" type="line" smooth="no"/>
      <point x="77" y="0" type="line" smooth="no"/>
      <point x="77" y="131" type="line" smooth="no"/>
      <point x="440" y="131" type="line" smooth="no"/>
      <point x="442" y="1134" type="line" smooth="no"/>
      <point x="350" y="1024"/>
      <point x="267" y="929"/>
      <point x="154" y="870" type="curve" smooth="no"/>
      <point x="95" y="986" type="line" smooth="no"/>
      <point x="228" y="1055"/>
      <point x="338" y="1183"/>
    </contour>
  </outline>
</glyph>
<glyph name="four" format="1">
  <advance width="996"/>
  <unicode hex="0034"/>
  <outline>
    <contour>
      <point x="632" y="1331" type="line"/>
      <point x="763" y="1331" type="line"/>
      <point x="763" y="464" type="line"/>
      <point x="919" y="464" type="line"/>
      <point x="919" y="330" type="line"/>
      <point x="763" y="330" type="line"/>
      <point x="763" y="0" type="line"/>
      <point x="635" y="0" type="line"/>
      <point x="635" y="330" type="line"/>
      <point x="79" y="330" type="line"/>
      <point x="79" y="530" type="line"/>
    </contour>
    <contour>
      <point x="635" y="1113" type="line"/>
      <point x="220" y="502" type="line"/>
      <point x="218" y="464" type="line"/>
      <point x="635" y="464" type="line"/>
    </contour>
  </outline>
</glyph>
<glyph name="five" format="1">
  <advance width="996"/>
  <unicode hex="0035"/>
  <outline>
    <contour>
      <point x="161" y="1331" type="line"/>
      <point x="814" y="1331" type="line"/>
      <point x="814" y="1201" type="line"/>
      <point x="279" y="1201" type="line"/>
      <point x="246" y="829" type="line"/>
      <point x="325" y="867"/>
      <point x="440" y="906"/>
      <point x="571" y="886" type="curve" smooth="yes"/>
      <point x="691" y="868"/>
      <point x="784" y="811"/>
      <point x="840" y="732" type="curve" smooth="yes"/>
      <point x="896" y="653"/>
      <point x="919" y="543"/>
      <point x="919" y="443" type="curve" smooth="yes"/>
      <point x="919" y="241"/>
      <point x="799" y="54"/>
      <point x="589" y="10" type="curve" smooth="yes"/>
      <point x="489" y="-10"/>
      <point x="376" y="-10"/>
      <point x="279" y="28" type="curve" smooth="yes"/>
      <point x="182" y="66"/>
      <point x="102" y="146"/>
      <point x="79" y="264" type="curve"/>
      <point x="200" y="289" type="line"/>
      <point x="215" y="215"/>
      <point x="258" y="174"/>
      <point x="325" y="148" type="curve" smooth="yes"/>
      <point x="392" y="122"/>
      <point x="484" y="118"/>
      <point x="563" y="136" type="curve" smooth="yes"/>
      <point x="711" y="167"/>
      <point x="788" y="289"/>
      <point x="788" y="443" type="curve" smooth="yes"/>
      <point x="788" y="522"/>
      <point x="771" y="604"/>
      <point x="735" y="655" type="curve" smooth="yes"/>
      <point x="699" y="706"/>
      <point x="642" y="743"/>
      <point x="550" y="758" type="curve" smooth="yes"/>
      <point x="386" y="773"/>
      <point x="287" y="735"/>
      <point x="192" y="617" type="curve"/>
      <point x="95" y="655" type="line"/>
    </contour>
  </outline>
</glyph>
<glyph name="six" format="1">
  <advance width="996"/>
  <unicode hex="0036"/>
  <outline>
    <contour>
      <point x="412" y="1331" type="curve"/>
      <point x="553" y="1331" type="line"/>
      <point x="504" y="1208"/>
      <point x="389" y="914"/>
      <point x="328" y="755" type="curve" smooth="yes"/>
      <point x="325" y="750"/>
      <point x="313" y="735"/>
      <point x="310" y="730" type="curve"/>
      <point x="364" y="758"/>
      <point x="435" y="781"/>
      <point x="499" y="781" type="curve" smooth="yes"/>
      <point x="724" y="781"/>
      <point x="909" y="604"/>
      <point x="909" y="389" type="curve" smooth="yes"/>
      <point x="909" y="174"/>
      <point x="724" y="0"/>
      <point x="499" y="0" type="curve" smooth="yes"/>
      <point x="310,195" y="4,49536"/>
      <point x="88,2483" y="137,515"/>
      <point x="88,2483" y="389,612" type="curve" smooth="yes"/>
      <point x="88,2483" y="417,912"/>
      <point x="91,0452" y="447,712"/>
      <point x="97" y="479" type="curve" smooth="yes"/>
      <point x="117" y="597"/>
      <point x="141" y="637"/>
      <point x="205" y="801" type="curve" smooth="yes"/>
      <point x="259" y="944"/>
      <point x="353" y="1183"/>
    </contour>
    <contour>
      <point x="499" y="653" type="curve" smooth="yes"/>
      <point x="345" y="653"/>
      <point x="220" y="535"/>
      <point x="220" y="389" type="curve" smooth="yes"/>
      <point x="220" y="243"/>
      <point x="345" y="125"/>
      <point x="499" y="125" type="curve" smooth="yes"/>
      <point x="653" y="125"/>
      <point x="776" y="243"/>
      <point x="776" y="389" type="curve" smooth="yes"/>
      <point x="776" y="535"/>
      <point x="653" y="653"/>
    </contour>
  </outline>
</glyph>
<glyph name="seven" format="1">
  <advance width="996"/>
  <unicode hex="0037"/>
  <outline>
    <contour>
      <point x="77" y="1331" type="line"/>
      <point x="922" y="1331" type="line"/>
      <point x="922" y="1193" type="line"/>
      <point x="264" y="0" type="line"/>
      <point x="118" y="0" type="line"/>
      <point x="778" y="1201" type="line"/>
      <point x="77" y="1201" type="line"/>
    </contour>
  </outline>
</glyph>
<glyph name="eight" format="1">
  <advance width="996"/>
  <unicode hex="0038"/>
  <outline>
    <contour>
      <point x="499" y="1331" type="curve" smooth="yes"/>
      <point x="683" y="1331"/>
      <point x="837" y="1175"/>
      <point x="837" y="991" type="curve" smooth="yes"/>
      <point x="837" y="883"/>
      <point x="786" y="791"/>
      <point x="709" y="730" type="curve"/>
      <point x="829" y="661"/>
      <point x="911" y="532"/>
      <point x="911" y="389" type="curve" smooth="yes"/>
      <point x="911" y="174"/>
      <point x="724" y="0"/>
      <point x="499" y="0" type="curve" smooth="yes"/>
      <point x="274" y="0"/>
      <point x="87" y="174"/>
      <point x="87" y="389" type="curve" smooth="yes"/>
      <point x="87" y="532"/>
      <point x="169" y="661"/>
      <point x="289" y="730" type="curve"/>
      <point x="212" y="791"/>
      <point x="161" y="885"/>
      <point x="161" y="993" type="curve" smooth="yes"/>
      <point x="161" y="1177"/>
      <point x="315" y="1331"/>
    </contour>
    <contour>
      <point x="499" y="1201" type="curve" smooth="yes"/>
      <point x="384" y="1201"/>
      <point x="292" y="1108"/>
      <point x="292" y="993" type="curve" smooth="yes"/>
      <point x="292" y="878"/>
      <point x="384" y="778"/>
      <point x="499" y="778" type="curve" smooth="yes"/>
      <point x="614" y="778"/>
      <point x="707" y="878"/>
      <point x="707" y="993" type="curve" smooth="yes"/>
      <point x="707" y="1108"/>
      <point x="614" y="1201"/>
    </contour>
    <contour>
      <point x="499" y="666" type="curve" smooth="yes"/>
      <point x="345" y="666"/>
      <point x="220" y="555"/>
      <point x="220" y="389" type="curve" smooth="yes"/>
      <point x="220" y="223"/>
      <point x="345" y="125"/>
      <point x="499" y="125" type="curve" smooth="yes"/>
      <point x="653" y="125"/>
      <point x="781" y="223"/>
      <point x="778" y="389" type="curve" smooth="yes"/>
      <point x="775" y="555"/>
      <point x="653" y="666"/>
    </contour>
  </outline>
</glyph>
<glyph name="nine" format="1">
  <advance width="998"/>
  <unicode hex="0039"/>
  <outline>
    <contour>
      <point x="594" y="0" type="line" smooth="no"/>
      <point x="453" y="0" type="line" smooth="no"/>
      <point x="678" y="576" type="line" smooth="yes"/>
      <point x="681" y="581"/>
      <point x="693" y="597"/>
      <point x="696" y="602" type="curve" smooth="no"/>
      <point x="642" y="574"/>
      <point x="571" y="550"/>
      <point x="507" y="550" type="curve" smooth="yes"/>
      <point x="282" y="550"/>
      <point x="97" y="727"/>
      <point x="97" y="942" type="curve" smooth="yes"/>
      <point x="97" y="1157"/>
      <point x="282" y="1331"/>
      <point x="507" y="1331" type="curve" smooth="yes"/>
      <point x="717" y="1326"/>
      <point x="968" y="1162"/>
      <point x="909" y="852" type="curve" smooth="yes"/>
      <point x="889" y="734"/>
      <point x="865" y="694"/>
      <point x="801" y="530" type="curve" smooth="yes"/>
    </contour>
    <contour>
      <point x="507" y="678" type="curve" smooth="yes"/>
      <point x="661" y="678"/>
      <point x="786" y="796"/>
      <point x="786" y="942" type="curve" smooth="yes"/>
      <point x="786" y="1088"/>
      <point x="661" y="1206"/>
      <point x="507" y="1206" type="curve" smooth="yes"/>
      <point x="353" y="1206"/>
      <point x="230" y="1088"/>
      <point x="230" y="942" type="curve" smooth="yes"/>
      <point x="230" y="796"/>
      <point x="353" y="678"/>
    </contour>
  </outline>
</glyph>
<glyph name="colon" format="1">
  <advance width="996"/>
  <unicode hex="003A"/>
  <outline>
    <contour>
      <point x="412" y="873" type="curve" smooth="yes"/>
      <point x="412" y="804"/>
      <point x="358" y="748"/>
      <point x="289" y="748" type="curve" smooth="yes"/>
      <point x="220" y="748"/>
      <point x="166" y="804"/>
      <point x="166" y="873" type="curve" smooth="yes"/>
      <point x="166" y="942"/>
      <point x="220" y="998"/>
      <point x="289" y="998" type="curve" smooth="yes"/>
      <point x="358" y="998"/>
      <point x="412" y="942"/>
    </contour>
    <contour>
      <point x="412" y="125" type="curve" smooth="yes"/>
      <point x="412" y="56"/>
      <point x="358" y="0"/>
      <point x="289" y="0" type="curve" smooth="yes"/>
      <point x="220" y="0"/>
      <point x="166" y="56"/>
      <point x="166" y="125" type="curve" smooth="yes"/>
      <point x="166" y="194"/>
      <point x="220" y="251"/>
      <point x="289" y="251" type="curve" smooth="yes"/>
      <point x="358" y="251"/>
      <point x="412" y="194"/>
    </contour>
  </outline>
</glyph>
<glyph name="semicolon" format="1">
  <advance width="996"/>
  <unicode hex="003B"/>
  <outline>
    <contour>
      <point x="146" y="243" type="line"/>
      <point x="346" y="212" type="line"/>
      <point x="189" y="-148" type="line"/>
      <point x="67" y="-148" type="line"/>
    </contour>
    <contour>
      <point x="361" y="873" type="curve" smooth="yes"/>
      <point x="361" y="804"/>
      <point x="307" y="748"/>
      <point x="238" y="748" type="curve" smooth="yes"/>
      <point x="169" y="748"/>
      <point x="115" y="804"/>
      <point x="115" y="873" type="curve" smooth="yes"/>
      <point x="115" y="942"/>
      <point x="169" y="998"/>
      <point x="238" y="998" type="curve" smooth="yes"/>
      <point x="307" y="998"/>
      <point x="361" y="942"/>
    </contour>
  </outline>
</glyph>
<glyph name="less" format="1">
  <advance width="998"/>
  <unicode hex="003c"/>
  <outline>
    <contour>
      <point x="148" y="428" type="line" smooth="no"/>
      <point x="773" y="0" type="line" smooth="no"/>
      <point x="842" y="105" type="line" smooth="no"/>
      <point x="279" y="497" type="line" smooth="no"/>
      <point x="279" y="512" type="line" smooth="no"/>
      <point x="842" y="893" type="line" smooth="no"/>
      <point x="773" y="998" type="line" smooth="no"/>
      <point x="148" y="571" type="line" smooth="no"/>
    </contour>
  </outline>
</glyph>
<glyph name="equal" format="1">
  <advance width="996"/>
  <unicode hex="003D"/>
  <outline>
    <contour>
      <point x="138" y="371" type="line"/>
      <point x="860" y="371" type="line"/>
      <point x="860" y="236" type="line"/>
      <point x="138" y="236" type="line"/>
    </contour>
    <contour>
      <point x="138" y="740" type="line"/>
      <point x="860" y="740" type="line"/>
      <point x="860" y="604" type="line"/>
      <point x="138" y="604" type="line"/>
    </contour>
  </outline>
</glyph>
<glyph name="greater" format="1">
  <advance width="996"/>
  <unicode hex="003E"/>
  <outline>
    <contour>
      <point x="850" y="428" type="line"/>
      <point x="225" y="0" type="line"/>
      <point x="156" y="105" type="line"/>
      <point x="719" y="497" type="line"/>
      <point x="719" y="512" type="line"/>
      <point x="156" y="893" type="line"/>
      <point x="225" y="998" type="line"/>
      <point x="850" y="571" type="line"/>
    </contour>
  </outline>
</glyph>
<glyph name="A" format="1">
  <advance width="996"/>
  <unicode hex="0041"/>
  <outline>
    <contour>
      <point x="417" y="1331" type="line"/>
      <point x="581" y="1331" type="line"/>
      <point x="916" y="0" type="line"/>
      <point x="783" y="0" type="line"/>
      <point x="691" y="361" type="line"/>
      <point x="307" y="361" type="line"/>
      <point x="215" y="0" type="line"/>
      <point x="82" y="0" type="line"/>
    </contour>
    <contour>
      <point x="499" y="1134" type="line"/>
      <point x="497" y="1119" type="line"/>
      <point x="340" y="492" type="line"/>
      <point x="658" y="492" type="line"/>
      <point x="502" y="1116" type="line"/>
    </contour>
  </outline>
</glyph>
<glyph name="B" format="1">
  <advance width="998"/>
  <unicode hex="0042"/>
  <outline>
    <contour>
      <point x="77" y="1331" type="line" smooth="no"/>
      <point x="77" y="1331"/>
      <point x="345" y="1334"/>
      <point x="481" y="1331" type="curve" smooth="yes"/>
      <point x="604" y="1331"/>
      <point x="699" y="1291"/>
      <point x="763" y="1224" type="curve" smooth="yes"/>
      <point x="827" y="1157"/>
      <point x="852" y="1070"/>
      <point x="852" y="986" type="curve" smooth="yes"/>
      <point x="852" y="871"/>
      <point x="822" y="776"/>
      <point x="753" y="712" type="curve" smooth="yes"/>
      <point x="743" y="702"/>
      <point x="732" y="699"/>
      <point x="727" y="696" type="curve" smooth="no"/>
      <point x="732" y="693"/>
      <point x="743" y="694"/>
      <point x="753" y="689" type="curve" smooth="yes"/>
      <point x="773" y="676"/>
      <point x="791" y="663"/>
      <point x="809" y="648" type="curve" smooth="yes"/>
      <point x="881" y="581"/>
      <point x="922" y="487"/>
      <point x="922" y="374" type="curve" smooth="yes"/>
      <point x="922" y="264"/>
      <point x="889" y="167"/>
      <point x="822" y="100" type="curve" smooth="yes"/>
      <point x="755" y="33"/>
      <point x="656" y="0"/>
      <point x="543" y="0" type="curve" smooth="yes"/>
      <point x="77" y="0" type="line" smooth="no"/>
    </contour>
    <contour>
      <point x="207" y="1203" type="line" smooth="no"/>
      <point x="207" y="753" type="line" smooth="no"/>
      <point x="481" y="753" type="line" smooth="yes"/>
      <point x="568" y="753"/>
      <point x="625" y="770"/>
      <point x="663" y="806" type="curve" smooth="yes"/>
      <point x="701" y="842"/>
      <point x="724" y="896"/>
      <point x="724" y="986" type="curve" smooth="yes"/>
      <point x="724" y="1042"/>
      <point x="704" y="1096"/>
      <point x="668" y="1134" type="curve" smooth="yes"/>
      <point x="632" y="1172"/>
      <point x="576" y="1203"/>
      <point x="481" y="1203" type="curve" smooth="yes"/>
    </contour>
    <contour>
      <point x="205" y="617" type="line" smooth="no"/>
      <point x="205" y="128" type="line" smooth="no"/>
      <point x="543" y="128" type="line" smooth="yes"/>
      <point x="630" y="128"/>
      <point x="692" y="154"/>
      <point x="730" y="192" type="curve" smooth="yes"/>
      <point x="768" y="230"/>
      <point x="794" y="290"/>
      <point x="794" y="374" type="curve" smooth="yes"/>
      <point x="794" y="456"/>
      <point x="768" y="509"/>
      <point x="724" y="550" type="curve" smooth="yes"/>
      <point x="680" y="591"/>
      <point x="612" y="617"/>
      <point x="522" y="617" type="curve" smooth="yes"/>
    </contour>
  </outline>
</glyph>
<glyph name="D" format="1">
  <advance width="998"/>
  <unicode hex="0044"/>
  <outline>
    <contour>
      <point x="207" y="1331" type="line" smooth="yes"/>
      <point x="312" y="1331"/>
      <point x="400" y="1333"/>
      <point x="502" y="1313" type="curve" smooth="no"/>
      <point x="607" y="1287"/>
      <point x="714" y="1234"/>
      <point x="791" y="1132" type="curve" smooth="yes"/>
      <point x="868" y="1030"/>
      <point x="914" y="886"/>
      <point x="914" y="689" type="curve" smooth="yes"/>
      <point x="914" y="494"/>
      <point x="880" y="338"/>
      <point x="806" y="225" type="curve" smooth="yes"/>
      <point x="732" y="112"/>
      <point x="620" y="48"/>
      <point x="484" y="15" type="curve" smooth="yes"/>
      <point x="359" y="-16"/>
      <point x="218" y="-3"/>
      <point x="195" y="0" type="curve" smooth="no"/>
      <point x="84" y="0" type="line" smooth="no"/>
      <point x="84" y="1331" type="line" smooth="no"/>
    </contour>
    <contour>
      <point x="471" y="1188" type="curve" smooth="yes"/>
      <point x="389" y="1208"/>
      <point x="294" y="1204"/>
      <point x="215" y="1201" type="curve" smooth="no"/>
      <point x="212" y="128" type="line" smooth="no"/>
      <point x="248" y="125"/>
      <point x="369" y="121"/>
      <point x="453" y="141" type="curve" smooth="yes"/>
      <point x="566" y="169"/>
      <point x="645" y="215"/>
      <point x="699" y="297" type="curve" smooth="yes"/>
      <point x="753" y="379"/>
      <point x="786" y="507"/>
      <point x="786" y="689" type="curve" smooth="yes"/>
      <point x="786" y="868"/>
      <point x="745" y="981"/>
      <point x="689" y="1055" type="curve" smooth="yes"/>
      <point x="633" y="1129"/>
      <point x="555" y="1168"/>
    </contour>
  </outline>
</glyph>
<glyph name="E" format="1">
  <advance width="998"/>
  <unicode hex="0045"/>
  <outline>
    <contour>
      <point x="113" y="1331" type="line" smooth="no"/>
      <point x="900" y="1331" type="line" smooth="no"/>
      <point x="900" y="1203" type="line" smooth="no"/>
      <point x="243" y="1203" type="line" smooth="no"/>
      <point x="243" y="745" type="line" smooth="no"/>
      <point x="775" y="745" type="line" smooth="no"/>
      <point x="775" y="614" type="line" smooth="no"/>
      <point x="243" y="614" type="line" smooth="no"/>
      <point x="243" y="131" type="line" smooth="no"/>
      <point x="897" y="131" type="line" smooth="no"/>
      <point x="897" y="0" type="line" smooth="no"/>
      <point x="113" y="0" type="line" smooth="no"/>
    </contour>
  </outline>
</glyph>
<glyph name="F" format="1">
  <advance width="998"/>
  <unicode hex="0046"/>
  <outline>
    <contour>
      <point x="127" y="1331" type="line" smooth="no"/>
      <point x="900" y="1331" type="line" smooth="no"/>
      <point x="900" y="1203" type="line" smooth="no"/>
      <point x="255" y="1203" type="line" smooth="no"/>
      <point x="255" y="737" type="line" smooth="no"/>
      <point x="837" y="737" type="line" smooth="no"/>
      <point x="837" y="607" type="line" smooth="no"/>
      <point x="255" y="607" type="line" smooth="no"/>
      <point x="255" y="0" type="line" smooth="no"/>
      <point x="127" y="0" type="line" smooth="no"/>
    </contour>
  </outline>
</glyph>
<glyph name="I" format="1">
  <advance width="998"/>
  <unicode hex="0049"/>
  <outline>
    <contour>
      <point x="87" y="1331" type="line" smooth="no"/>
      <point x="911" y="1331" type="line" smooth="no"/>
      <point x="911" y="1201" type="line" smooth="no"/>
      <point x="563" y="1201" type="line" smooth="no"/>
      <point x="563" y="131" type="line" smooth="no"/>
      <point x="911" y="131" type="line" smooth="no"/>
      <point x="911" y="0" type="line" smooth="no"/>
      <point x="87" y="0" type="line" smooth="no"/>
      <point x="87" y="131" type="line" smooth="no"/>
      <point x="435" y="131" type="line" smooth="no"/>
      <point x="435" y="1201" type="line" smooth="no"/>
      <point x="87" y="1201" type="line" smooth="no"/>
    </contour>
  </outline>
</glyph>
<glyph name="J" format="1">
  <advance width="996"/>
  <unicode hex="004A"/>
  <outline>
    <contour>
      <point x="233" y="1334" type="line"/>
      <point x="919" y="1334" type="line"/>
      <point x="919" y="1331" type="line"/>
      <point x="919" y="532" type="line" smooth="yes"/>
      <point x="919" y="345"/>
      <point x="870" y="207"/>
      <point x="783" y="120" type="curve" smooth="yes"/>
      <point x="696" y="33"/>
      <point x="581" y="0"/>
      <point x="466" y="0" type="curve" smooth="yes"/>
      <point x="346" y="0"/>
      <point x="246" y="59"/>
      <point x="179" y="131" type="curve" smooth="yes"/>
      <point x="112" y="203"/>
      <point x="79" y="289"/>
      <point x="79" y="371" type="curve"/>
      <point x="207" y="371" type="line"/>
      <point x="207" y="330"/>
      <point x="230" y="267"/>
      <point x="276" y="218" type="curve" smooth="yes"/>
      <point x="322" y="169"/>
      <point x="384" y="128"/>
      <point x="466" y="128" type="curve" smooth="yes"/>
      <point x="556" y="128"/>
      <point x="635" y="151"/>
      <point x="691" y="210" type="curve" smooth="yes"/>
      <point x="747" y="269"/>
      <point x="791" y="366"/>
      <point x="791" y="532" type="curve" smooth="yes"/>
      <point x="791" y="1203" type="line"/>
      <point x="233" y="1203" type="line"/>
    </contour>
  </outline>
</glyph>
<glyph name="K" format="1">
  <advance width="996"/>
  <unicode hex="004B"/>
  <outline>
    <contour>
      <point x="72" y="1331" type="line"/>
      <point x="202" y="1331" type="line"/>
      <point x="202" y="576" type="line"/>
      <point x="763" y="1331" type="line"/>
      <point x="924" y="1331" type="line"/>
      <point x="512" y="776" type="line"/>
      <point x="927" y="0" type="line"/>
      <point x="781" y="0" type="line"/>
      <point x="430" y="663" type="line"/>
      <point x="202" y="358" type="line"/>
      <point x="202" y="0" type="line"/>
      <point x="72" y="0" type="line"/>
    </contour>
  </outline>
</glyph>
<glyph name="L" format="1">
  <advance width="998"/>
  <unicode hex="004c"/>
  <outline>
    <contour>
      <point x="150" y="1331" type="line" smooth="no"/>
      <point x="281" y="1331" type="line" smooth="no"/>
      <point x="281" y="131" type="line" smooth="no"/>
      <point x="924" y="131" type="line" smooth="no"/>
      <point x="924" y="0" type="line" smooth="no"/>
      <point x="150" y="0" type="line" smooth="no"/>
    </contour>
  </outline>
</glyph>
<glyph name="M" format="1">
  <advance width="996"/>
  <unicode hex="004D"/>
  <outline>
    <contour>
      <point x="804" y="1331" type="line"/>
      <point x="927" y="1331" type="line"/>
      <point x="927" y="-5" type="line"/>
      <point x="799" y="-5" type="line"/>
      <point x="799" y="1042" type="line"/>
      <point x="499" y="399" type="line"/>
      <point x="200" y="1037" type="line"/>
      <point x="200" y="0" type="line"/>
      <point x="72" y="0" type="line"/>
      <point x="72" y="1331" type="line"/>
      <point x="195" y="1331" type="line"/>
      <point x="497" y="712" type="line"/>
      <point x="499" y="696" type="line"/>
      <point x="502" y="712" type="line"/>
    </contour>
  </outline>
</glyph>
<glyph name="N" format="1">
  <advance width="998"/>
  <unicode hex="004e"/>
  <outline>
    <contour>
      <point x="202" y="1331" type="line" smooth="no"/>
      <point x="788" y="264" type="line" smooth="no"/>
      <point x="788" y="1331" type="line" smooth="no"/>
      <point x="919" y="1331" type="line" smooth="no"/>
      <point x="919" y="0" type="line" smooth="no"/>
      <point x="796" y="0" type="line" smooth="no"/>
      <point x="210" y="1068" type="line" smooth="no"/>
      <point x="210" y="0" type="line" smooth="no"/>
      <point x="79" y="0" type="line" smooth="no"/>
      <point x="79" y="1331" type="line" smooth="no"/>
    </contour>
  </outline>
</glyph>
<glyph name="Q" format="1">
  <advance width="996"/>
  <unicode hex="0051"/>
  <outline>
    <contour>
      <point x="499" y="1331" type="curve" smooth="yes"/>
      <point x="647" y="1331"/>
      <point x="763" y="1244"/>
      <point x="827" y="1121" type="curve" smooth="yes"/>
      <point x="891" y="998"/>
      <point x="917" y="835"/>
      <point x="917" y="663" type="curve" smooth="yes"/>
      <point x="917" y="494"/>
      <point x="883" y="342"/>
      <point x="829" y="226" type="curve"/>
      <point x="897" y="145"/>
      <point x="905" y="50"/>
      <point x="905" y="0" type="curve"/>
      <point x="792" y="0" type="line"/>
      <point x="792" y="23"/>
      <point x="786" y="84"/>
      <point x="754" y="129" type="curve"/>
      <point x="712" y="87" type="line" smooth="yes"/>
      <point x="658" y="38"/>
      <point x="599" y="0"/>
      <point x="494" y="0" type="curve" smooth="yes"/>
      <point x="389" y="0"/>
      <point x="266" y="56"/>
      <point x="187" y="192" type="curve" smooth="yes"/>
      <point x="108" y="328"/>
      <point x="82" y="492"/>
      <point x="82" y="666" type="curve" smooth="yes"/>
      <point x="82" y="838"/>
      <point x="108" y="998"/>
      <point x="172" y="1121" type="curve" smooth="yes"/>
      <point x="236" y="1244"/>
      <point x="351" y="1331"/>
    </contour>
    <contour>
      <point x="732" y="318" type="line"/>
      <point x="763" y="408"/>
      <point x="786" y="541"/>
      <point x="786" y="666" type="curve" smooth="yes"/>
      <point x="786" y="825"/>
      <point x="761" y="965"/>
      <point x="712" y="1060" type="curve" smooth="yes"/>
      <point x="663" y="1155"/>
      <point x="601" y="1201"/>
      <point x="499" y="1201" type="curve" smooth="yes"/>
      <point x="397" y="1201"/>
      <point x="336" y="1155"/>
      <point x="287" y="1060" type="curve" smooth="yes"/>
      <point x="238" y="965"/>
      <point x="212" y="825"/>
      <point x="212" y="666" type="curve" smooth="yes"/>
      <point x="212" y="507"/>
      <point x="236" y="364"/>
      <point x="287" y="269" type="curve" smooth="yes"/>
      <point x="338" y="174"/>
      <point x="400" y="128"/>
      <point x="497" y="128" type="curve" smooth="yes"/>
      <point x="571" y="128"/>
      <point x="634" y="160"/>
      <point x="678" y="216" type="curve"/>
      <point x="542" y="349" type="line"/>
      <point x="607" y="428" type="line"/>
    </contour>
  </outline>
</glyph>
<glyph name="T" format="1">
  <advance width="996"/>
  <unicode hex="0054"/>
  <outline>
    <contour>
      <point x="77" y="1331" type="line"/>
      <point x="922" y="1331" type="line"/>
      <point x="922" y="1198" type="line"/>
      <point x="563" y="1198" type="line"/>
      <point x="563" y="0" type="line"/>
      <point x="435" y="0" type="line"/>
      <point x="435" y="1198" type="line"/>
      <point x="77" y="1198" type="line"/>
    </contour>
  </outline>
</glyph>
<glyph name="U" format="1">
  <advance width="996"/>
  <unicode hex="0055"/>
  <outline>
    <contour>
      <point x="82" y="1331" type="line"/>
      <point x="212" y="1331" type="line"/>
      <point x="212" y="568" type="line" smooth="yes"/>
      <point x="212" y="409"/>
      <point x="241" y="297"/>
      <point x="287" y="230" type="curve" smooth="yes"/>
      <point x="333" y="163"/>
      <point x="394" y="131"/>
      <point x="499" y="131" type="curve" smooth="yes"/>
      <point x="604" y="131"/>
      <point x="666" y="163"/>
      <point x="712" y="230" type="curve" smooth="yes"/>
      <point x="758" y="297"/>
      <point x="786" y="409"/>
      <point x="786" y="568" type="curve" smooth="yes"/>
      <point x="786" y="1331" type="line"/>
      <point x="916" y="1331" type="line"/>
      <point x="916" y="568" type="line" smooth="yes"/>
      <point x="916" y="394"/>
      <point x="888" y="258"/>
      <point x="819" y="156" type="curve" smooth="yes"/>
      <point x="750" y="54"/>
      <point x="635" y="0"/>
      <point x="499" y="0" type="curve" smooth="yes"/>
      <point x="363" y="0"/>
      <point x="248" y="54"/>
      <point x="179" y="156" type="curve" smooth="yes"/>
      <point x="110" y="258"/>
      <point x="82" y="394"/>
      <point x="82" y="568" type="curve" smooth="yes"/>
    </contour>
  </outline>
</glyph>
<glyph name="V" format="1">
  <advance width="996"/>
  <unicode hex="0056"/>
  <outline>
    <contour>
      <point x="84" y="1331" type="line"/>
      <point x="218" y="1331" type="line"/>
      <point x="497" y="189" type="line"/>
      <point x="499" y="169" type="line"/>
      <point x="502" y="189" type="line"/>
      <point x="781" y="1331" type="line"/>
      <point x="914" y="1331" type="line"/>
      <point x="581" y="0" type="line"/>
      <point x="417" y="0" type="line"/>
    </contour>
  </outline>
</glyph>
<glyph name="W" format="1">
  <advance width="998"/>
  <unicode hex="0057"/>
  <outline>
    <contour>
      <point x="82" y="1331" type="line" smooth="no"/>
      <point x="212" y="1331" type="line" smooth="no"/>
      <point x="279" y="289" type="line" smooth="no"/>
      <point x="430" y="776" type="line" smooth="no"/>
      <point x="499" y="1014" type="line" smooth="no"/>
      <point x="568" y="778" type="line" smooth="no"/>
      <point x="719" y="289" type="line" smooth="no"/>
      <point x="786" y="1331" type="line" smooth="no"/>
      <point x="916" y="1331" type="line" smooth="no"/>
      <point x="832" y="0" type="line" smooth="no"/>
      <point x="676" y="0" type="line" smooth="no"/>
      <point x="504" y="568" type="line" smooth="no"/>
      <point x="499" y="607" type="line" smooth="no"/>
      <point x="494" y="568" type="line" smooth="no"/>
      <point x="323" y="0" type="line" smooth="no"/>
      <point x="166" y="0" type="line" smooth="no"/>
    </contour>
  </outline>
</glyph>
<glyph name="X" format="1">
  <advance width="996"/>
  <unicode hex="0058"/>
  <outline>
    <contour>
      <point x="92" y="1331" type="line"/>
      <point x="238" y="1331" type="line"/>
      <point x="499" y="788" type="line"/>
      <point x="760" y="1331" type="line"/>
      <point x="906" y="1331" type="line"/>
      <point x="573" y="668" type="line"/>
      <point x="911" y="0" type="line"/>
      <point x="765" y="0" type="line"/>
      <point x="499" y="548" type="line"/>
      <point x="233" y="0" type="line"/>
      <point x="87" y="0" type="line"/>
      <point x="428" y="668" type="line"/>
    </contour>
  </outline>
</glyph>
<glyph name="Y" format="1">
  <advance width="996"/>
  <unicode hex="0059"/>
  <outline>
    <contour>
      <point x="90" y="1334" type="line"/>
      <point x="230" y="1334" type="line"/>
      <point x="499" y="732" type="line"/>
      <point x="765" y="1334" type="line"/>
      <point x="909" y="1334" type="line"/>
      <point x="563" y="589" type="line"/>
      <point x="563" y="0" type="line"/>
      <point x="435" y="0" type="line"/>
      <point x="435" y="589" type="line"/>
    </contour>
  </outline>
</glyph>
<glyph name="Z" format="1">
  <advance width="996"/>
  <unicode hex="005A"/>
  <outline>
    <contour>
      <point x="95" y="1331" type="line"/>
      <point x="901" y="1331" type="line"/>
      <point x="901" y="1193" type="line"/>
      <point x="233" y="131" type="line"/>
      <point x="922" y="131" type="line"/>
      <point x="922" y="0" type="line"/>
      <point x="77" y="0" type="line"/>
      <point x="77" y="128" type="line"/>
      <point x="753" y="1198" type="line"/>
      <point x="95" y="1198" type="line"/>
    </contour>
  </outline>
</glyph>
<glyph name="bracketleft" format="1">
  <advance width="996"/>
  <unicode hex="005B"/>
  <outline>
    <contour>
      <point x="225" y="1500" type="line"/>
      <point x="706" y="1500" type="line"/>
      <point x="706" y="1367" type="line"/>
      <point x="356" y="1367" type="line"/>
      <point x="356" y="-31" type="line"/>
      <point x="704" y="-31" type="line"/>
      <point x="704" y="-162" type="line"/>
      <point x="225" y="-162" type="line"/>
    </contour>
  </outline>
</glyph>
<glyph name="backslash" format="1">
  <advance width="998"/>
  <unicode hex="005c"/>
  <outline>
    <contour>
      <point x="998" y="-128" type="line" smooth="no"/>
      <point x="205" y="1331" type="line" smooth="no"/>
      <point x="54" y="1331" type="line" smooth="no"/>
      <point x="847" y="-128" type="line" smooth="no"/>
    </contour>
  </outline>
</glyph>
<glyph name="bracketright" format="1">
  <advance width="996"/>
  <unicode hex="005D"/>
  <outline>
    <contour>
      <point x="773" y="1500" type="line"/>
      <point x="773" y="-162" type="line"/>
      <point x="294" y="-162" type="line"/>
      <point x="294" y="-31" type="line"/>
      <point x="642" y="-31" type="line"/>
      <point x="642" y="1367" type="line"/>
      <point x="292" y="1367" type="line"/>
      <point x="292" y="1500" type="line"/>
    </contour>
  </outline>
</glyph>
<glyph name="asciicircum" format="1">
  <advance width="996"/>
  <unicode hex="005E"/>
  <outline>
    <contour>
      <point x="298" y="1083" type="line"/>
      <point x="145" y="1083" type="line"/>
      <point x="395" y="1332" type="line"/>
      <point x="570" y="1332" type="line"/>
      <point x="820" y="1083" type="line"/>
      <point x="667" y="1083" type="line"/>
      <point x="483" y="1235" type="line"/>
    </contour>
  </outline>
</glyph>
<glyph name="underscore" format="1">
  <advance width="998"/>
  <unicode hex="005f"/>
  <outline>
    <contour>
      <point x="898" y="-208" type="line" smooth="no"/>
      <point x="100" y="-208" type="line" smooth="no"/>
      <point x="100" y="-77" type="line" smooth="no"/>
      <point x="898" y="-77" type="line" smooth="no"/>
    </contour>
  </outline>
</glyph>
<glyph name="grave" format="1">
  <advance width="996"/>
  <unicode hex="0060"/>
  <outline>
    <contour>
      <point x="613" y="1083" type="line"/>
      <point x="460" y="1083" type="line"/>
      <point x="238" y="1266" type="line"/>
      <point x="363" y="1332" type="line"/>
    </contour>
  </outline>
</glyph>
<glyph name="e" format="1">
  <advance width="998"/>
  <unicode hex="0065"/>
  <outline>
    <contour>
      <point x="251" y="445" type="line" smooth="no"/>
      <point x="256" y="361"/>
      <point x="274" y="281"/>
      <point x="310" y="230" type="curve" smooth="yes"/>
      <point x="351" y="169"/>
      <point x="407" y="136"/>
      <point x="497" y="131" type="curve" smooth="yes"/>
      <point x="497" y="131" type="line" smooth="yes"/>
      <point x="579" y="131"/>
      <point x="630" y="153"/>
      <point x="666" y="184" type="curve" smooth="yes"/>
      <point x="702" y="215"/>
      <point x="722" y="253"/>
      <point x="735" y="294" type="curve" smooth="no"/>
      <point x="860" y="256" type="line" smooth="no"/>
      <point x="842" y="200"/>
      <point x="807" y="135"/>
      <point x="748" y="84" type="curve" smooth="yes"/>
      <point x="689" y="33"/>
      <point x="605" y="0"/>
      <point x="497" y="0" type="curve" smooth="yes"/>
      <point x="494" y="0" type="line" smooth="no"/>
      <point x="494" y="0" type="line" smooth="no"/>
      <point x="366" y="5"/>
      <point x="263" y="67"/>
      <point x="202" y="159" type="curve" smooth="yes"/>
      <point x="141" y="251"/>
      <point x="118" y="364"/>
      <point x="118" y="484" type="curve" smooth="yes"/>
      <point x="118" y="602"/>
      <point x="133" y="727"/>
      <point x="189" y="824" type="curve" smooth="yes"/>
      <point x="245" y="921"/>
      <point x="351" y="993"/>
      <point x="494" y="996" type="curve" smooth="no"/>
      <point x="497" y="996" type="line" smooth="no"/>
      <point x="497" y="996" type="line" smooth="yes"/>
      <point x="594" y="993"/>
      <point x="694" y="970"/>
      <point x="768" y="891" type="curve" smooth="yes"/>
      <point x="842" y="812"/>
      <point x="881" y="684"/>
      <point x="878" y="507" type="curve" smooth="yes"/>
      <point x="878" y="445" type="line" smooth="no"/>
    </contour>
    <contour>
      <point x="453" y="860" type="curve" smooth="yes"/>
      <point x="361" y="845"/>
      <point x="266" y="755"/>
      <point x="256" y="573" type="curve" smooth="no"/>
      <point x="745" y="573" type="line" smooth="no"/>
      <point x="740" y="691"/>
      <point x="717" y="750"/>
      <point x="676" y="801" type="curve" smooth="yes"/>
      <point x="635" y="852"/>
      <point x="545" y="875"/>
    </contour>
  </outline>
</glyph>
<glyph name="f" format="1">
  <advance width="998"/>
  <unicode hex="0066"/>
  <outline>
    <contour>
      <point x="599" y="1329" type="curve" smooth="no"/>
      <point x="735" y="1326"/>
      <point x="860" y="1247"/>
      <point x="906" y="1073" type="curve" smooth="no"/>
      <point x="812" y="1034" type="line" smooth="no"/>
      <point x="766" y="1170"/>
      <point x="653" y="1213"/>
      <point x="561" y="1198" type="curve" smooth="yes"/>
      <point x="471" y="1183"/>
      <point x="418" y="1122"/>
      <point x="433" y="1004" type="curve" smooth="yes"/>
      <point x="441" y="943"/>
      <point x="451" y="899"/>
      <point x="456" y="858" type="curve" smooth="no"/>
      <point x="765" y="858" type="line" smooth="no"/>
      <point x="765" y="727" type="line" smooth="no"/>
      <point x="468" y="727" type="line" smooth="no"/>
      <point x="468" y="0" type="line" smooth="no"/>
      <point x="338" y="0" type="line" smooth="no"/>
      <point x="338" y="727" type="line" smooth="no"/>
      <point x="92" y="727" type="line" smooth="no"/>
      <point x="92" y="858" type="line" smooth="no"/>
      <point x="323" y="858" type="line" smooth="no"/>
      <point x="318" y="896"/>
      <point x="312" y="932"/>
      <point x="307" y="986" type="curve" smooth="yes"/>
      <point x="292" y="1124"/>
      <point x="343" y="1319"/>
    </contour>
  </outline>
</glyph>
<glyph name="g" format="1">
  <advance width="996"/>
  <unicode hex="0067"/>
  <outline>
    <contour>
      <point x="914" y="1065" type="line"/>
      <point x="914" y="1045"/>
      <point x="911" y="1026"/>
      <point x="906" y="1006" type="curve" smooth="yes"/>
      <point x="888" y="957"/>
      <point x="853" y="911"/>
      <point x="781" y="891" type="curve"/>
      <point x="850" y="832"/>
      <point x="863" y="717"/>
      <point x="863" y="663" type="curve" smooth="yes"/>
      <point x="863" y="525"/>
      <point x="732" y="346"/>
      <point x="499" y="343" type="curve" smooth="yes"/>
      <point x="455" y="343"/>
      <point x="420" y="351"/>
      <point x="392" y="348" type="curve" smooth="yes"/>
      <point x="323" y="340"/>
      <point x="297" y="312"/>
      <point x="292" y="279" type="curve" smooth="yes"/>
      <point x="284" y="233"/>
      <point x="309" y="172"/>
      <point x="486" y="172" type="curve" smooth="yes"/>
      <point x="852" y="172"/>
      <point x="914" y="15"/>
      <point x="914" y="-82" type="curve" smooth="yes"/>
      <point x="914" y="-333"/>
      <point x="650" y="-335"/>
      <point x="499" y="-335" type="curve" smooth="yes"/>
      <point x="374" y="-335"/>
      <point x="82" y="-335"/>
      <point x="82" y="-87" type="curve"/>
      <point x="79" y="21"/>
      <point x="168" y="108"/>
      <point x="276" y="128" type="curve"/>
      <point x="276" y="131" type="line"/>
      <point x="168" y="159"/>
      <point x="166" y="225"/>
      <point x="169" y="266" type="curve" smooth="yes"/>
      <point x="174" y="376"/>
      <point x="276" y="410"/>
      <point x="276" y="410" type="curve"/>
      <point x="276" y="412" type="line"/>
      <point x="276" y="412"/>
      <point x="128" y="509"/>
      <point x="128" y="663" type="curve" smooth="yes"/>
      <point x="128" y="932"/>
      <point x="377" y="998"/>
      <point x="497" y="998" type="curve" smooth="yes"/>
      <point x="594" y="998"/>
      <point x="640" y="983"/>
      <point x="691" y="960" type="curve"/>
      <point x="735" y="965"/>
      <point x="780" y="1001"/>
      <point x="783" y="1065" type="curve"/>
    </contour>
    <contour>
      <point x="497" y="873" type="curve" smooth="yes"/>
      <point x="369" y="873"/>
      <point x="256" y="806"/>
      <point x="256" y="663" type="curve" smooth="yes"/>
      <point x="256" y="604"/>
      <point x="304" y="471"/>
      <point x="499" y="471" type="curve" smooth="yes"/>
      <point x="686" y="471"/>
      <point x="735" y="607"/>
      <point x="735" y="663" type="curve" smooth="yes"/>
      <point x="735" y="827"/>
      <point x="625" y="873"/>
    </contour>
    <contour>
      <point x="497" y="56" type="curve" smooth="yes"/>
      <point x="387" y="56"/>
      <point x="212" y="47"/>
      <point x="212" y="-84" type="curve" smooth="yes"/>
      <point x="212" y="-215"/>
      <point x="399" y="-228"/>
      <point x="499" y="-228" type="curve" smooth="yes"/>
      <point x="599" y="-228"/>
      <point x="783" y="-218"/>
      <point x="783" y="-87" type="curve" smooth="yes"/>
      <point x="783" y="44"/>
      <point x="607" y="56"/>
    </contour>
  </outline>
</glyph>
<glyph name="h" format="1">
  <advance width="996"/>
  <unicode hex="0068"/>
  <outline>
    <contour>
      <point x="118" y="1331" type="line"/>
      <point x="246" y="1331" type="line"/>
      <point x="246" y="824" type="line" smooth="yes"/>
      <point x="251" y="824" type="line"/>
      <point x="287" y="918"/>
      <point x="413" y="995"/>
      <point x="522" y="995" type="curve" smooth="yes"/>
      <point x="660" y="995"/>
      <point x="730" y="944"/>
      <point x="794" y="860" type="curve" smooth="yes"/>
      <point x="840" y="799"/>
      <point x="881" y="674"/>
      <point x="881" y="566" type="curve" smooth="yes"/>
      <point x="881" y="0" type="line"/>
      <point x="748" y="0" type="line"/>
      <point x="748" y="566" type="line" smooth="yes"/>
      <point x="748" y="656"/>
      <point x="730" y="704"/>
      <point x="699" y="763" type="curve" smooth="yes"/>
      <point x="679" y="801"/>
      <point x="632" y="862"/>
      <point x="522" y="862" type="curve" smooth="yes"/>
      <point x="417" y="862"/>
      <point x="349" y="817"/>
      <point x="305" y="748" type="curve" smooth="yes"/>
      <point x="261" y="679"/>
      <point x="246" y="584"/>
      <point x="246" y="494" type="curve" smooth="yes"/>
      <point x="246" y="0" type="line"/>
      <point x="118" y="0" type="line"/>
      <point x="118" y="494" type="line"/>
    </contour>
  </outline>
</glyph>
<glyph name="i" format="1">
  <advance width="996"/>
  <unicode hex="0069"/>
  <outline>
    <contour>
      <point x="136" y="998" type="line"/>
      <point x="563" y="998" type="line"/>
      <point x="563" y="133" type="line"/>
      <point x="914" y="133" type="line"/>
      <point x="914" y="0" type="line"/>
      <point x="84" y="0" type="line"/>
      <point x="84" y="133" type="line"/>
      <point x="435" y="133" type="line"/>
      <point x="435" y="865" type="line"/>
      <point x="136" y="865" type="line"/>
    </contour>
    <contour>
      <point x="621" y="1329" type="curve" smooth="yes"/>
      <point x="621" y="1260"/>
      <point x="567" y="1203"/>
      <point x="498" y="1203" type="curve" smooth="yes"/>
      <point x="429" y="1203"/>
      <point x="375" y="1260"/>
      <point x="375" y="1329" type="curve" smooth="yes"/>
      <point x="375" y="1398"/>
      <point x="429" y="1452"/>
      <point x="498" y="1452" type="curve" smooth="yes"/>
      <point x="567" y="1452"/>
      <point x="621" y="1398"/>
    </contour>
  </outline>
</glyph>
<glyph name="j" format="1">
  <advance width="996"/>
  <unicode hex="006A"/>
  <outline>
    <contour>
      <point x="271" y="998" type="line"/>
      <point x="835" y="998" type="line"/>
      <point x="835" y="169" type="line"/>
      <point x="835" y="169"/>
      <point x="840" y="-20"/>
      <point x="796" y="-128" type="curve" smooth="yes"/>
      <point x="752" y="-236"/>
      <point x="643" y="-333"/>
      <point x="461" y="-333" type="curve" smooth="yes"/>
      <point x="279" y="-333"/>
      <point x="187" y="-236"/>
      <point x="151" y="-141" type="curve" smooth="yes"/>
      <point x="115" y="-46"/>
      <point x="138" y="41"/>
      <point x="138" y="41" type="curve"/>
      <point x="253" y="20" type="line"/>
      <point x="253" y="20"/>
      <point x="246" y="-41"/>
      <point x="266" y="-95" type="curve" smooth="yes"/>
      <point x="286" y="-149"/>
      <point x="318" y="-218"/>
      <point x="461" y="-218" type="curve" smooth="yes"/>
      <point x="604" y="-218"/>
      <point x="645" y="-153"/>
      <point x="673" y="-79" type="curve" smooth="yes"/>
      <point x="701" y="-5"/>
      <point x="699" y="169"/>
      <point x="699" y="169" type="curve"/>
      <point x="699" y="868" type="line"/>
      <point x="271" y="868" type="line"/>
    </contour>
    <contour>
      <point x="868" y="1331" type="curve" smooth="yes"/>
      <point x="868" y="1262"/>
      <point x="814" y="1206"/>
      <point x="745" y="1206" type="curve" smooth="yes"/>
      <point x="676" y="1206"/>
      <point x="622" y="1262"/>
      <point x="622" y="1331" type="curve" smooth="yes"/>
      <point x="622" y="1400"/>
      <point x="676" y="1457"/>
      <point x="745" y="1457" type="curve" smooth="yes"/>
      <point x="814" y="1457"/>
      <point x="868" y="1400"/>
    </contour>
  </outline>
</glyph>
<glyph name="k" format="1">
  <advance width="996"/>
  <unicode hex="006B"/>
  <outline>
    <contour>
      <point x="92" y="1331" type="line"/>
      <point x="223" y="1331" type="line"/>
      <point x="223" y="428" type="line"/>
      <point x="753" y="996" type="line"/>
      <point x="847" y="909" type="line"/>
      <point x="492" y="525" type="line"/>
      <point x="906" y="13" type="line"/>
      <point x="906" y="0" type="line"/>
      <point x="745" y="0" type="line"/>
      <point x="399" y="428" type="line"/>
      <point x="223" y="238" type="line"/>
      <point x="223" y="0" type="line"/>
      <point x="92" y="0" type="line"/>
    </contour>
  </outline>
</glyph>
<glyph name="l" format="1">
  <advance width="996"/>
  <unicode hex="006C"/>
  <outline>
    <contour>
      <point x="74" y="1331" type="line"/>
      <point x="563" y="1331" type="line"/>
      <point x="563" y="131" type="line"/>
      <point x="924" y="131" type="line"/>
      <point x="924" y="0" type="line"/>
      <point x="74" y="0" type="line"/>
      <point x="74" y="131" type="line"/>
      <point x="435" y="131" type="line"/>
      <point x="435" y="1203" type="line"/>
      <point x="74" y="1203" type="line"/>
    </contour>
  </outline>
</glyph>
<glyph name="m" format="1">
  <advance width="998"/>
  <unicode hex="006d"/>
  <outline>
    <contour>
      <point x="72" y="998" type="line" smooth="no"/>
      <point x="177" y="998" type="line" smooth="no"/>
      <point x="202" y="924" type="line" smooth="no"/>
      <point x="243" y="965"/>
      <point x="284" y="1001"/>
      <point x="358" y="998" type="curve" smooth="yes"/>
      <point x="432" y="995"/>
      <point x="479" y="942"/>
      <point x="507" y="896" type="curve" smooth="no"/>
      <point x="548" y="950"/>
      <point x="602" y="998"/>
      <point x="699" y="998" type="curve" smooth="yes"/>
      <point x="796" y="998"/>
      <point x="868" y="919"/>
      <point x="896" y="860" type="curve" smooth="yes"/>
      <point x="924" y="801"/>
      <point x="927" y="748"/>
      <point x="927" y="717" type="curve" smooth="yes"/>
      <point x="927" y="0" type="line" smooth="no"/>
      <point x="794" y="0" type="line" smooth="no"/>
      <point x="794" y="717" type="line" smooth="yes"/>
      <point x="794" y="740"/>
      <point x="796" y="778"/>
      <point x="783" y="806" type="curve" smooth="yes"/>
      <point x="770" y="834"/>
      <point x="752" y="863"/>
      <point x="701" y="868" type="curve" smooth="yes"/>
      <point x="660" y="873"/>
      <point x="627" y="855"/>
      <point x="599" y="827" type="curve" smooth="yes"/>
      <point x="571" y="799"/>
      <point x="566" y="737"/>
      <point x="566" y="737" type="curve" smooth="no"/>
      <point x="566" y="0" type="line" smooth="no"/>
      <point x="433" y="0" type="line" smooth="no"/>
      <point x="433" y="717" type="line" smooth="yes"/>
      <point x="433" y="740"/>
      <point x="435" y="778"/>
      <point x="422" y="806" type="curve" smooth="yes"/>
      <point x="409" y="834"/>
      <point x="391" y="863"/>
      <point x="340" y="868" type="curve" smooth="yes"/>
      <point x="302" y="873"/>
      <point x="258" y="855"/>
      <point x="230" y="827" type="curve" smooth="yes"/>
      <point x="212" y="807"/>
      <point x="202" y="781"/>
      <point x="202" y="753" type="curve" smooth="yes"/>
      <point x="202" y="0" type="line" smooth="no"/>
      <point x="72" y="0" type="line" smooth="no"/>
    </contour>
  </outline>
</glyph>
<glyph name="o" format="1">
  <advance width="996"/>
  <unicode hex="006F"/>
  <outline>
    <contour>
      <point x="499" y="998" type="curve" smooth="yes"/>
      <point x="645" y="998"/>
      <point x="756" y="924"/>
      <point x="817" y="827" type="curve" smooth="yes"/>
      <point x="878" y="730"/>
      <point x="906" y="610"/>
      <point x="906" y="502" type="curve" smooth="yes"/>
      <point x="906" y="394"/>
      <point x="878" y="269"/>
      <point x="817" y="172" type="curve" smooth="yes"/>
      <point x="756" y="75"/>
      <point x="643" y="0"/>
      <point x="497" y="0" type="curve" smooth="yes"/>
      <point x="351" y="0"/>
      <point x="238" y="75"/>
      <point x="177" y="172" type="curve" smooth="yes"/>
      <point x="116" y="269"/>
      <point x="92" y="394"/>
      <point x="92" y="502" type="curve" smooth="yes"/>
      <point x="92" y="610"/>
      <point x="118" y="730"/>
      <point x="179" y="827" type="curve" smooth="yes"/>
      <point x="240" y="924"/>
      <point x="353" y="998"/>
    </contour>
    <contour>
      <point x="499" y="868" type="curve" smooth="yes"/>
      <point x="394" y="868"/>
      <point x="336" y="824"/>
      <point x="292" y="755" type="curve" smooth="yes"/>
      <point x="248" y="686"/>
      <point x="223" y="589"/>
      <point x="223" y="502" type="curve" smooth="yes"/>
      <point x="223" y="415"/>
      <point x="243" y="310"/>
      <point x="287" y="241" type="curve" smooth="yes"/>
      <point x="331" y="172"/>
      <point x="389" y="128"/>
      <point x="497" y="128" type="curve" smooth="yes"/>
      <point x="605" y="128"/>
      <point x="663" y="172"/>
      <point x="707" y="241" type="curve" smooth="yes"/>
      <point x="751" y="310"/>
      <point x="776" y="415"/>
      <point x="776" y="502" type="curve" smooth="yes"/>
      <point x="776" y="589"/>
      <point x="753" y="686"/>
      <point x="709" y="755" type="curve" smooth="yes"/>
      <point x="665" y="824"/>
      <point x="604" y="868"/>
    </contour>
  </outline>
</glyph>
<glyph name="q" format="1">
  <advance width="996"/>
  <unicode hex="0071"/>
  <outline>
    <contour>
      <point x="904" y="998" type="line"/>
      <point x="904" y="-333" type="line"/>
      <point x="773" y="-333" type="line"/>
      <point x="773" y="120" type="line"/>
      <point x="709" y="48"/>
      <point x="617" y="0"/>
      <point x="499" y="0" type="curve" smooth="yes"/>
      <point x="353" y="0"/>
      <point x="240" y="75"/>
      <point x="179" y="172" type="curve" smooth="yes"/>
      <point x="118" y="269"/>
      <point x="95" y="391"/>
      <point x="95" y="499" type="curve" smooth="yes"/>
      <point x="95" y="607"/>
      <point x="121" y="730"/>
      <point x="182" y="827" type="curve" smooth="yes"/>
      <point x="243" y="924"/>
      <point x="356" y="998"/>
      <point x="499" y="998" type="curve" smooth="yes"/>
      <point x="617" y="998"/>
      <point x="709" y="948"/>
      <point x="773" y="876" type="curve"/>
      <point x="801" y="998" type="line"/>
    </contour>
    <contour>
      <point x="499" y="868" type="curve" smooth="yes"/>
      <point x="394" y="868"/>
      <point x="336" y="824"/>
      <point x="292" y="755" type="curve" smooth="yes"/>
      <point x="248" y="686"/>
      <point x="225" y="589"/>
      <point x="225" y="499" type="curve" smooth="yes"/>
      <point x="225" y="409"/>
      <point x="248" y="312"/>
      <point x="292" y="243" type="curve" smooth="yes"/>
      <point x="336" y="174"/>
      <point x="394" y="131"/>
      <point x="499" y="131" type="curve" smooth="yes"/>
      <point x="604" y="131"/>
      <point x="678" y="174"/>
      <point x="722" y="243" type="curve" smooth="yes"/>
      <point x="766" y="312"/>
      <point x="771" y="409"/>
      <point x="771" y="499" type="curve" smooth="yes"/>
      <point x="771" y="589"/>
      <point x="766" y="686"/>
      <point x="722" y="755" type="curve" smooth="yes"/>
      <point x="678" y="824"/>
      <point x="604" y="868"/>
    </contour>
  </outline>
</glyph>
<glyph name="r" format="1">
  <advance width="996"/>
  <unicode hex="0072"/>
  <outline>
    <contour>
      <point x="182" y="998" type="line"/>
      <point x="292" y="998" type="line"/>
      <point x="312" y="909" type="line"/>
      <point x="371" y="968"/>
      <point x="445" y="997"/>
      <point x="538" y="1001" type="curve" smooth="yes"/>
      <point x="613" y="1004"/>
      <point x="702" y="993"/>
      <point x="769" y="932" type="curve" smooth="yes"/>
      <point x="827" y="879"/>
      <point x="857" y="839"/>
      <point x="895" y="754" type="curve"/>
      <point x="787" y="693" type="line"/>
      <point x="759" y="738"/>
      <point x="752" y="768"/>
      <point x="700" y="818" type="curve" smooth="yes"/>
      <point x="654" y="862"/>
      <point x="574" y="877"/>
      <point x="514" y="870" type="curve" smooth="yes"/>
      <point x="457" y="863"/>
      <point x="320" y="840"/>
      <point x="320" y="576" type="curve" smooth="yes"/>
      <point x="320" y="0" type="line"/>
      <point x="182" y="0" type="line"/>
    </contour>
  </outline>
</glyph>
<glyph name="s" format="1">
  <advance width="996"/>
  <unicode hex="0073"/>
  <outline>
    <contour>
      <point x="248" y="919" type="curve" smooth="yes"/>
      <point x="358" y="1011"/>
      <point x="573" y="1016"/>
      <point x="673" y="965" type="curve" smooth="yes"/>
      <point x="773" y="914"/>
      <point x="819" y="855"/>
      <point x="837" y="771" type="curve"/>
      <point x="732" y="727" type="line"/>
      <point x="709" y="788"/>
      <point x="681" y="825"/>
      <point x="640" y="845" type="curve" smooth="yes"/>
      <point x="599" y="865"/>
      <point x="540" y="873"/>
      <point x="463" y="868" type="curve" smooth="yes"/>
      <point x="396" y="863"/>
      <point x="338" y="837"/>
      <point x="305" y="799" type="curve" smooth="yes"/>
      <point x="244" y="727"/>
      <point x="279" y="628"/>
      <point x="376" y="602" type="curve" smooth="yes"/>
      <point x="473" y="576"/>
      <point x="599" y="548"/>
      <point x="696" y="520" type="curve" smooth="yes"/>
      <point x="793" y="492"/>
      <point x="842" y="432"/>
      <point x="868" y="348" type="curve" smooth="yes"/>
      <point x="894" y="264"/>
      <point x="868" y="169"/>
      <point x="804" y="102" type="curve" smooth="yes"/>
      <point x="737" y="35"/>
      <point x="633" y="0"/>
      <point x="492" y="0" type="curve" smooth="yes"/>
      <point x="351" y="0"/>
      <point x="258" y="34"/>
      <point x="197" y="90" type="curve" smooth="yes"/>
      <point x="136" y="146"/>
      <point x="120" y="220"/>
      <point x="120" y="274" type="curve"/>
      <point x="241" y="284" type="line"/>
      <point x="246" y="246"/>
      <point x="253" y="212"/>
      <point x="284" y="184" type="curve" smooth="yes"/>
      <point x="315" y="156"/>
      <point x="372" y="128"/>
      <point x="492" y="128" type="curve" smooth="yes"/>
      <point x="610" y="128"/>
      <point x="679" y="159"/>
      <point x="712" y="195" type="curve" smooth="yes"/>
      <point x="745" y="231"/>
      <point x="755" y="271"/>
      <point x="742" y="320" type="curve" smooth="yes"/>
      <point x="732" y="361"/>
      <point x="706" y="379"/>
      <point x="655" y="397" type="curve" smooth="yes"/>
      <point x="542" y="433"/>
      <point x="458" y="453"/>
      <point x="361" y="479" type="curve" smooth="yes"/>
      <point x="264" y="505"/>
      <point x="182" y="553"/>
      <point x="154" y="635" type="curve" smooth="yes"/>
      <point x="121" y="725"/>
      <point x="138" y="827"/>
    </contour>
  </outline>
</glyph>
<glyph name="t" format="1">
  <advance width="996"/>
  <unicode hex="0074"/>
  <outline>
    <contour>
      <point x="384" y="1229" type="line"/>
      <point x="515" y="1265" type="line"/>
      <point x="515" y="998" type="line"/>
      <point x="865" y="998" type="line"/>
      <point x="865" y="865" type="line"/>
      <point x="515" y="865" type="line"/>
      <point x="515" y="131" type="line"/>
      <point x="863" y="131" type="line"/>
      <point x="863" y="0" type="line"/>
      <point x="384" y="0" type="line"/>
      <point x="384" y="865" type="line"/>
      <point x="123" y="865" type="line"/>
      <point x="123" y="998" type="line"/>
      <point x="384" y="998" type="line"/>
    </contour>
  </outline>
</glyph>
<glyph name="v" format="1">
  <advance width="996"/>
  <unicode hex="0076"/>
  <outline>
    <contour>
      <point x="87" y="998" type="line"/>
      <point x="225" y="998" type="line"/>
      <point x="497" y="197" type="line"/>
      <point x="503" y="164" type="line"/>
      <point x="509" y="197" type="line"/>
      <point x="773" y="998" type="line"/>
      <point x="911" y="998" type="line"/>
      <point x="579" y="0" type="line"/>
      <point x="428" y="0" type="line"/>
    </contour>
  </outline>
</glyph>
<glyph name="w" format="1">
  <advance width="998"/>
  <unicode hex="0077"/>
  <outline>
    <contour>
      <point x="77" y="998" type="line" smooth="no"/>
      <point x="210" y="998" type="line" smooth="no"/>
      <point x="271" y="248" type="line" smooth="no"/>
      <point x="438" y="684" type="line" smooth="no"/>
      <point x="561" y="684" type="line" smooth="no"/>
      <point x="727" y="251" type="line" smooth="no"/>
      <point x="791" y="998" type="line" smooth="no"/>
      <point x="922" y="998" type="line" smooth="no"/>
      <point x="837" y="0" type="line" smooth="no"/>
      <point x="699" y="0" type="line" smooth="no"/>
      <point x="502" y="512" type="line" smooth="no"/>
      <point x="499" y="522" type="line" smooth="no"/>
      <point x="497" y="512" type="line" smooth="no"/>
      <point x="302" y="0" type="line" smooth="no"/>
      <point x="164" y="0" type="line" smooth="no"/>
    </contour>
  </outline>
</glyph>
<glyph name="x" format="1">
  <advance width="998"/>
  <unicode hex="0078"/>
  <outline>
    <contour>
      <point x="87" y="998" type="line" smooth="no"/>
      <point x="246" y="998" type="line" smooth="no"/>
      <point x="497" y="620" type="line" smooth="no"/>
      <point x="497" y="617" type="line" smooth="no"/>
      <point x="499" y="617" type="line" smooth="no"/>
      <point x="499" y="620" type="line" smooth="no"/>
      <point x="755" y="998" type="line" smooth="no"/>
      <point x="911" y="998" type="line" smooth="no"/>
      <point x="579" y="507" type="line" smooth="no"/>
      <point x="922" y="0" type="line" smooth="no"/>
      <point x="763" y="0" type="line" smooth="no"/>
      <point x="502" y="389" type="line" smooth="no"/>
      <point x="502" y="394" type="line" smooth="no"/>
      <point x="499" y="394" type="line" smooth="no"/>
      <point x="497" y="389" type="line" smooth="no"/>
      <point x="236" y="0" type="line" smooth="no"/>
      <point x="77" y="0" type="line" smooth="no"/>
      <point x="420" y="507" type="line" smooth="no"/>
    </contour>
  </outline>
</glyph>
<glyph name="y" format="1">
  <advance width="996"/>
  <unicode hex="0079"/>
  <outline>
    <contour>
      <point x="87" y="998" type="line"/>
      <point x="225" y="998" type="line"/>
      <point x="497" y="279" type="line"/>
      <point x="502" y="251" type="line"/>
      <point x="507" y="279" type="line"/>
      <point x="773" y="998" type="line"/>
      <point x="911" y="998" type="line"/>
      <point x="548" y="5" type="line"/>
      <point x="548" y="5"/>
      <point x="484" y="-141"/>
      <point x="440" y="-200" type="curve" smooth="yes"/>
      <point x="340" y="-333"/>
      <point x="177" y="-345"/>
      <point x="154" y="-348" type="curve"/>
      <point x="154" y="-218" type="line"/>
      <point x="180" y="-213"/>
      <point x="284" y="-197"/>
      <point x="338" y="-123" type="curve" smooth="yes"/>
      <point x="382" y="-64"/>
      <point x="435" y="79"/>
      <point x="435" y="79" type="curve"/>
    </contour>
  </outline>
</glyph>
<glyph name="z" format="1">
  <advance width="998"/>
  <unicode hex="007a"/>
  <outline>
    <contour>
      <point x="118" y="998" type="line" smooth="no"/>
      <point x="870" y="998" type="line" smooth="no"/>
      <point x="870" y="870" type="line" smooth="no"/>
      <point x="271" y="131" type="line" smooth="no"/>
      <point x="901" y="131" type="line" smooth="no"/>
      <point x="901" y="0" type="line" smooth="no"/>
      <point x="97" y="0" type="line" smooth="no"/>
      <point x="97" y="128" type="line" smooth="no"/>
      <point x="701" y="868" type="line" smooth="no"/>
      <point x="118" y="868" type="line" smooth="no"/>
    </contour>
  </outline>
</glyph>
<glyph name="braceleft" format="1">
  <advance width="996"/>
  <unicode hex="007B"/>
  <outline>
    <contour>
      <point x="390" y="694" type="curve"/>
      <point x="418" y="663"/>
      <point x="464" y="616"/>
      <point x="464" y="534" type="curve" smooth="yes"/>
      <point x="464" y="48" type="line" smooth="yes"/>
      <point x="464" y="-60"/>
      <point x="469" y="-62"/>
      <point x="553" y="-62" type="curve" smooth="yes"/>
      <point x="708" y="-62" type="line"/>
      <point x="708" y="-162" type="line"/>
      <point x="532" y="-162" type="line"/>
      <point x="524" y="-162" type="line" smooth="yes"/>
      <point x="358" y="-162"/>
      <point x="358" y="-66"/>
      <point x="358" y="17" type="curve" smooth="yes"/>
      <point x="358" y="470" type="line" smooth="yes"/>
      <point x="358" y="657"/>
      <point x="324" y="647"/>
      <point x="241" y="658" type="curve"/>
      <point x="241" y="730" type="line"/>
      <point x="324" y="741"/>
      <point x="358" y="731"/>
      <point x="358" y="918" type="curve" smooth="yes"/>
      <point x="358" y="1299" type="line" smooth="yes"/>
      <point x="358" y="1382"/>
      <point x="358" y="1478"/>
      <point x="524" y="1478" type="curve" smooth="yes"/>
      <point x="532" y="1478" type="line"/>
      <point x="708" y="1478" type="line"/>
      <point x="708" y="1378" type="line"/>
      <point x="553" y="1378" type="line" smooth="yes"/>
      <point x="469" y="1378"/>
      <point x="464" y="1375"/>
      <point x="464" y="1267" type="curve" smooth="yes"/>
      <point x="464" y="854" type="line" smooth="yes"/>
      <point x="464" y="772"/>
      <point x="418" y="725"/>
    </contour>
  </outline>
</glyph>
<glyph name="bar" format="1">
  <advance width="996"/>
  <unicode hex="007C"/>
  <outline>
    <contour>
      <point x="563" y="-162" type="line"/>
      <point x="432" y="-162" type="line"/>
      <point x="432" y="1500" type="line"/>
      <point x="563" y="1500" type="line"/>
    </contour>
  </outline>
</glyph>
<glyph name="braceright" format="1">
  <advance width="996"/>
  <unicode hex="007D"/>
  <outline>
    <contour>
      <point x="608" y="694" type="curve"/>
      <point x="580" y="725"/>
      <point x="534" y="772"/>
      <point x="534" y="854" type="curve" smooth="yes"/>
      <point x="534" y="1267" type="line" smooth="yes"/>
      <point x="534" y="1375"/>
      <point x="529" y="1378"/>
      <point x="445" y="1378" type="curve" smooth="yes"/>
      <point x="290" y="1378" type="line"/>
      <point x="290" y="1478" type="line"/>
      <point x="466" y="1478" type="line"/>
      <point x="474" y="1478" type="line" smooth="yes"/>
      <point x="640" y="1478"/>
      <point x="640" y="1382"/>
      <point x="640" y="1299" type="curve" smooth="yes"/>
      <point x="640" y="918" type="line" smooth="yes"/>
      <point x="640" y="731"/>
      <point x="674" y="741"/>
      <point x="757" y="730" type="curve"/>
      <point x="757" y="658" type="line"/>
      <point x="674" y="647"/>
      <point x="640" y="657"/>
      <point x="640" y="470" type="curve" smooth="yes"/>
      <point x="640" y="17" type="line" smooth="yes"/>
      <point x="640" y="-66"/>
      <point x="640" y="-162"/>
      <point x="474" y="-162" type="curve" smooth="yes"/>
      <point x="466" y="-162" type="line"/>
      <point x="290" y="-162" type="line"/>
      <point x="290" y="-62" type="line"/>
      <point x="445" y="-62" type="line" smooth="yes"/>
      <point x="529" y="-62"/>
      <point x="534" y="-60"/>
      <point x="534" y="48" type="curve" smooth="yes"/>
      <point x="534" y="534" type="line" smooth="yes"/>
      <point x="534" y="616"/>
      <point x="580" y="663"/>
    </contour>
  </outline>
</glyph>
<glyph name="asciitilde" format="1">
  <advance width="996"/>
  <unicode hex="007E"/>
  <outline>
    <contour>
      <point x="772" y="1192" type="line"/>
      <point x="718" y="1135"/>
      <point x="643" y="1083"/>
      <point x="566" y="1083" type="curve" smooth="yes"/>
      <point x="491" y="1083"/>
      <point x="409" y="1173"/>
      <point x="352" y="1173" type="curve" smooth="yes"/>
      <point x="300" y="1173"/>
      <point x="261" y="1143"/>
      <point x="204" y="1089" type="curve"/>
      <point x="154" y="1154" type="line"/>
      <point x="216" y="1223"/>
      <point x="277" y="1272"/>
      <point x="352" y="1272" type="curve" smooth="yes"/>
      <point x="432" y="1272"/>
      <point x="487" y="1179"/>
      <point x="566" y="1179" type="curve" smooth="yes"/>
      <point x="630" y="1179"/>
      <point x="670" y="1208"/>
      <point x="721" y="1262" type="curve"/>
    </contour>
  </outline>
</glyph>
<glyph name="dieresis" format="1">
  <advance width="998"/>
  <unicode hex="00a8"/>
  <outline>
    <contour>
      <point x="797.699" y="1220.5" type="curve" smooth="yes"/>
      <point x="797.699" y="1158.4"/>
      <point x="749.099" y="1107.1"/>
      <point x="687" y="1107.1" type="curve" smooth="yes"/>
      <point x="624.899" y="1107.1"/>
      <point x="576.3" y="1158.4"/>
      <point x="576.3" y="1220.5" type="curve" smooth="yes"/>
      <point x="576.3" y="1282.6"/>
      <point x="624.899" y="1331.2"/>
      <point x="687" y="1331.2" type="curve" smooth="yes"/>
      <point x="749.099" y="1331.2"/>
      <point x="797.699" y="1282.6"/>
    </contour>
    <contour>
      <point x="421.899" y="1220.5" type="curve" smooth="yes"/>
      <point x="421.899" y="1158.4"/>
      <point x="373.3" y="1107.1"/>
      <point x="311.199" y="1107.1" type="curve" smooth="yes"/>
      <point x="249.099" y="1107.1"/>
      <point x="200.5" y="1158.4"/>
      <point x="200.5" y="1220.5" type="curve" smooth="yes"/>
      <point x="200.5" y="1282.6"/>
      <point x="249.099" y="1331.2"/>
      <point x="311.199" y="1331.2" type="curve" smooth="yes"/>
      <point x="373.3" y="1331.2"/>
      <point x="421.899" y="1282.6"/>
    </contour>
  </outline>
</glyph>
<glyph name="guillemotleft" format="1">
  <advance width="996"/>
  <unicode hex="00AB"/>
  <outline>
    <contour>
      <point x="428" y="498" type="line"/>
      <point x="428" y="511" type="line"/>
      <point x="832" y="938" type="line"/>
      <point x="921" y="853" type="line"/>
      <point x="599" y="512" type="line"/>
      <point x="599" y="497" type="line"/>
      <point x="901" y="145" type="line"/>
      <point x="812" y="60" type="line"/>
    </contour>
    <contour>
      <point x="98" y="498" type="line"/>
      <point x="98" y="511" type="line"/>
      <point x="482" y="938" type="line"/>
      <point x="571" y="853" type="line"/>
      <point x="269" y="512" type="line"/>
      <point x="269" y="497" type="line"/>
      <point x="571" y="145" type="line"/>
      <point x="482" y="60" type="line"/>
    </contour>
  </outline>
</glyph>
<glyph name="degree" format="1">
  <advance width="996"/>
  <unicode hex="00B0"/>
  <outline>
    <contour>
      <point x="430" y="1197" type="curve" smooth="yes"/>
      <point x="430" y="1159"/>
      <point x="460" y="1130"/>
      <point x="498" y="1130" type="curve" smooth="yes"/>
      <point x="536" y="1130"/>
      <point x="565" y="1159"/>
      <point x="565" y="1197" type="curve" smooth="yes"/>
      <point x="565" y="1235"/>
      <point x="536" y="1265"/>
      <point x="498" y="1265" type="curve" smooth="yes"/>
      <point x="460" y="1265"/>
      <point x="430" y="1235"/>
    </contour>
    <contour>
      <point x="370" y="1197" type="curve" smooth="yes"/>
      <point x="370" y="1267"/>
      <point x="427" y="1324"/>
      <point x="498" y="1324" type="curve" smooth="yes"/>
      <point x="569" y="1324"/>
      <point x="627" y="1267"/>
      <point x="627" y="1197" type="curve" smooth="yes"/>
      <point x="627" y="1127"/>
      <point x="569" y="1071"/>
      <point x="498" y="1071" type="curve" smooth="yes"/>
      <point x="427" y="1071"/>
      <point x="370" y="1127"/>
    </contour>
  </outline>
</glyph>
<glyph name="acute" format="1">
  <advance width="996"/>
  <unicode hex="00B4"/>
  <outline>
    <contour>
      <point x="384" y="1083" type="line"/>
      <point x="634" y="1331" type="line"/>
      <point x="759" y="1266" type="line"/>
      <point x="537" y="1083" type="line"/>
    </contour>
  </outline>
</glyph>
<glyph name="cedilla" format="1">
  <advance width="996"/>
  <unicode hex="00B8"/>
  <outline>
    <contour>
      <point x="454" y="36" type="line"/>
      <point x="600" y="36" type="line"/>
      <point x="550" y="-162" type="line"/>
      <point x="454" y="-162" type="line"/>
    </contour>
  </outline>
</glyph>
<glyph name="guillemotright" format="1">
  <advance width="996"/>
  <unicode hex="00BB"/>
  <outline>
    <contour>
      <point x="568" y="498" type="line"/>
      <point x="568" y="511" type="line"/>
      <point x="184" y="938" type="line"/>
      <point x="95" y="853" type="line"/>
      <point x="397" y="512" type="line"/>
      <point x="397" y="497" type="line"/>
      <point x="95" y="145" type="line"/>
      <point x="184" y="60" type="line"/>
    </contour>
    <contour>
      <point x="898" y="498" type="line"/>
      <point x="898" y="511" type="line"/>
      <point x="514" y="938" type="line"/>
      <point x="425" y="853" type="line"/>
      <point x="727" y="512" type="line"/>
      <point x="727" y="497" type="line"/>
      <point x="425" y="145" type="line"/>
      <point x="514" y="60" type="line"/>
    </contour>
  </outline>
</glyph>
<glyph name="questiondown" format="1">
  <advance width="996"/>
  <unicode hex="00BF"/>
  <outline>
    <contour>
      <point x="466" y="1208" type="curve" smooth="yes"/>
      <point x="466" y="1277"/>
      <point x="520" y="1333"/>
      <point x="589" y="1333" type="curve" smooth="yes"/>
      <point x="658" y="1333"/>
      <point x="712" y="1277"/>
      <point x="712" y="1208" type="curve" smooth="yes"/>
      <point x="712" y="1139"/>
      <point x="658" y="1082"/>
      <point x="589" y="1082" type="curve" smooth="yes"/>
      <point x="520" y="1082"/>
      <point x="466" y="1139"/>
    </contour>
    <contour>
      <point x="658" y="880" type="line"/>
      <point x="658" y="880"/>
      <point x="671" y="739"/>
      <point x="563" y="626" type="curve" smooth="yes"/>
      <point x="450" y="508"/>
      <point x="412" y="501"/>
      <point x="374" y="440" type="curve" smooth="yes"/>
      <point x="336" y="379"/>
      <point x="336" y="342"/>
      <point x="336" y="286" type="curve" smooth="yes"/>
      <point x="339" y="214"/>
      <point x="400" y="163"/>
      <point x="487" y="137" type="curve" smooth="yes"/>
      <point x="574" y="111"/>
      <point x="665" y="122"/>
      <point x="737" y="173" type="curve" smooth="yes"/>
      <point x="806" y="222"/>
      <point x="807" y="293"/>
      <point x="807" y="337" type="curve"/>
      <point x="924" y="365" type="line"/>
      <point x="955" y="283"/>
      <point x="909" y="137"/>
      <point x="814" y="73" type="curve" smooth="yes"/>
      <point x="719" y="9"/>
      <point x="571" y="-19"/>
      <point x="448" y="17" type="curve" smooth="yes"/>
      <point x="328" y="53"/>
      <point x="233" y="124"/>
      <point x="205" y="255" type="curve" smooth="yes"/>
      <point x="185" y="355"/>
      <point x="207" y="425"/>
      <point x="261" y="504" type="curve" smooth="yes"/>
      <point x="317" y="586"/>
      <point x="361" y="599"/>
      <point x="469" y="719" type="curve" smooth="yes"/>
      <point x="513" y="768"/>
      <point x="514" y="831"/>
      <point x="522" y="882" type="curve"/>
    </contour>
  </outline>
</glyph>
<glyph name="Eth" format="1">
  <advance width="996"/>
  <unicode hex="00D0"/>
  <outline>
    <contour>
      <point x="511" y="1188" type="curve" smooth="yes"/>
      <point x="429" y="1208"/>
      <point x="334" y="1204"/>
      <point x="255" y="1201" type="curve"/>
      <point x="253,658" y="721" type="line"/>
      <point x="490" y="721" type="line"/>
      <point x="490" y="595" type="line"/>
      <point x="253,306" y="595" type="line"/>
      <point x="252" y="128" type="line"/>
      <point x="288" y="125"/>
      <point x="409" y="121"/>
      <point x="493" y="141" type="curve" smooth="yes"/>
      <point x="606" y="169"/>
      <point x="685" y="215"/>
      <point x="739" y="297" type="curve" smooth="yes"/>
      <point x="793" y="379"/>
      <point x="826" y="507"/>
      <point x="826" y="689" type="curve" smooth="yes"/>
      <point x="826" y="868"/>
      <point x="785" y="981"/>
      <point x="729" y="1055" type="curve" smooth="yes"/>
      <point x="673" y="1129"/>
      <point x="595" y="1168"/>
    </contour>
    <contour>
      <point x="247" y="1331" type="line" smooth="yes"/>
      <point x="352" y="1331"/>
      <point x="440" y="1333"/>
      <point x="542" y="1313" type="curve"/>
      <point x="647" y="1287"/>
      <point x="754" y="1234"/>
      <point x="831" y="1132" type="curve" smooth="yes"/>
      <point x="908" y="1030"/>
      <point x="954" y="886"/>
      <point x="954" y="689" type="curve" smooth="yes"/>
      <point x="954" y="494"/>
      <point x="920" y="338"/>
      <point x="846" y="225" type="curve" smooth="yes"/>
      <point x="772" y="112"/>
      <point x="662,042" y="38,007"/>
      <point x="524" y="15" type="curve" smooth="yes"/>
      <point x="434" y="0"/>
      <point x="324" y="0"/>
      <point x="235" y="0" type="curve"/>
      <point x="124" y="0" type="line"/>
      <point x="124" y="595" type="line"/>
      <point x="0" y="595" type="line"/>
      <point x="0" y="721" type="line"/>
      <point x="124" y="721" type="line"/>
      <point x="124" y="1331" type="line"/>
    </contour>
  </outline>
</glyph>
<glyph name="dotlessi" format="1">
  <advance width="996"/>
  <unicode hex="0131"/>
  <outline>
    <contour>
      <point x="136" y="998" type="line"/>
      <point x="563" y="998" type="line"/>
      <point x="563" y="133" type="line"/>
      <point x="914" y="133" type="line"/>
      <point x="914" y="0" type="line"/>
      <point x="84" y="0" type="line"/>
      <point x="84" y="133" type="line"/>
      <point x="435" y="133" type="line"/>
      <point x="435" y="865" type="line"/>
      <point x="136" y="865" type="line"/>
    </contour>
  </outline>
</glyph>
<glyph name="quotedblleft" format="1">
  <advance width="996"/>
  <unicode hex="201C"/>
  <outline>
    <contour>
      <point x="697" y="1360" type="line"/>
      <point x="537" y="1329" type="line"/>
      <point x="663" y="998" type="line"/>
      <point x="756" y="998" type="line"/>
    </contour>
    <contour>
      <point x="417" y="1304" type="line"/>
      <point x="257" y="1273" type="line"/>
      <point x="453" y="998" type="line"/>
      <point x="546" y="998" type="line"/>
    </contour>
  </outline>
</glyph>
<glyph name="quotedblright" format="1">
  <advance width="996"/>
  <unicode hex="201D"/>
  <outline>
    <contour>
      <point x="299" y="1360" type="line"/>
      <point x="459" y="1329" type="line"/>
      <point x="333" y="998" type="line"/>
      <point x="240" y="998" type="line"/>
    </contour>
    <contour>
      <point x="579" y="1304" type="line"/>
      <point x="739" y="1273" type="line"/>
      <point x="543" y="998" type="line"/>
      <point x="450" y="998" type="line"/>
    </contour>
  </outline>
</glyph>
<glyph name="Euro" format="1">
  <advance width="996"/>
  <unicode hex="20AC"/>
  <outline>
    <contour>
      <point x="577" y="1339" type="curve" smooth="yes"/>
      <point x="651" y="1339"/>
      <point x="728" y="1324"/>
      <point x="800" y="1275" type="curve" smooth="yes"/>
      <point x="872" y="1226"/>
      <point x="927" y="1145"/>
      <point x="963" y="1027" type="curve"/>
      <point x="848" y="996" type="line"/>
      <point x="820" y="1093"/>
      <point x="769" y="1136"/>
      <point x="725" y="1167" type="curve" smooth="yes"/>
      <point x="681" y="1198"/>
      <point x="633" y="1208"/>
      <point x="577" y="1208" type="curve" smooth="yes"/>
      <point x="472" y="1208"/>
      <point x="380" y="1154"/>
      <point x="311" y="998" type="curve" smooth="yes"/>
      <point x="292" y="955"/>
      <point x="279" y="896"/>
      <point x="271" y="827" type="curve"/>
      <point x="634" y="852" type="line"/>
      <point x="634" y="735" type="line"/>
      <point x="264" y="709" type="line"/>
      <point x="264" y="691" type="line" smooth="yes"/>
      <point x="264" y="656"/>
      <point x="266" y="621"/>
      <point x="269" y="586" type="curve"/>
      <point x="634" y="586" type="line"/>
      <point x="634" y="470" type="line"/>
      <point x="286" y="470" type="line"/>
      <point x="294" y="434"/>
      <point x="303" y="402"/>
      <point x="313" y="376" type="curve" smooth="yes"/>
      <point x="374" y="220"/>
      <point x="462" y="141"/>
      <point x="595" y="141" type="curve" smooth="yes"/>
      <point x="718" y="141"/>
      <point x="825" y="256"/>
      <point x="840" y="366" type="curve"/>
      <point x="968" y="348" type="line"/>
      <point x="942" y="174"/>
      <point x="792" y="10"/>
      <point x="595" y="10" type="curve" smooth="yes"/>
      <point x="406" y="10"/>
      <point x="267" y="144"/>
      <point x="193" y="328" type="curve" smooth="yes"/>
      <point x="177" y="370"/>
      <point x="164" y="418"/>
      <point x="154" y="470" type="curve"/>
      <point x="22" y="470" type="line"/>
      <point x="22" y="586" type="line"/>
      <point x="138" y="586" type="line"/>
      <point x="135" y="620"/>
      <point x="134" y="654"/>
      <point x="134" y="689" type="curve" smooth="yes"/>
      <point x="134" y="701" type="line"/>
      <point x="22" y="693" type="line"/>
      <point x="22" y="809" type="line"/>
      <point x="139" y="818" type="line"/>
      <point x="146" y="904"/>
      <point x="162" y="984"/>
      <point x="193" y="1052" type="curve" smooth="yes"/>
      <point x="277" y="1239"/>
      <point x="421" y="1339"/>
    </contour>
  </outline>
</glyph>
